v -4227.162109375 35060.2890625 194.09130859375
vn 0 -1 0
v -4227.162109375 35060.2890625 494.09130859375
vn 0 -1 0
v 5414.94921875 35060.2890625 494.09130859375
vn 0 -1 0
v 5414.94921875 35060.2890625 194.09130859375
vn 0 -1 0
v 5414.94921875 35060.2890625 194.09130859375
vn 1 0 0
v 5414.94921875 35060.2890625 494.09130859375
vn 1 0 0
v 5414.94921875 35210.2890625 494.09130859375
vn 1 0 0
v 5414.94921875 35210.2890625 194.09130859375
vn 1 0 0
v 5414.94921875 35210.2890625 194.09130859375
vn 3.21307390162138E-16 1 0
v 5414.94921875 35210.2890625 494.09130859375
vn 3.21307390162138E-16 1 0
v -4492.1728515625 35210.2890625 494.09130859375
vn 3.21307390162138E-16 1 0
v -4492.1728515625 35210.2890625 194.09130859375
vn 3.21307390162138E-16 1 0
v -4492.1728515625 35210.2890625 194.09130859375
vn -0.740779161453247 -0.671748638153076 0
v -4492.1728515625 35210.2890625 494.09130859375
vn -0.740779161453247 -0.671748638153076 0
v -4480.58984375 35197.515625 494.09130859375
vn -0.740779161453247 -0.671748638153076 0
v -4480.58984375 35197.515625 194.09130859375
vn -0.740779161453247 -0.671748638153076 0
v -4480.58984375 35197.515625 194.09130859375
vn -0.71503883600235 -0.6990846991539 0
v -4480.58984375 35197.515625 494.09130859375
vn -0.71503883600235 -0.6990846991539 0
v -4468.53564453125 35185.1875 494.09130859375
vn -0.71503883600235 -0.6990846991539 0
v -4468.53564453125 35185.1875 194.09130859375
vn -0.71503883600235 -0.6990846991539 0
v -4468.53564453125 35185.1875 194.09130859375
vn -0.688290476799011 -0.725435197353363 0
v -4468.53564453125 35185.1875 494.09130859375
vn -0.688290476799011 -0.725435197353363 0
v -4456.02685546875 35173.3203125 494.09130859375
vn -0.688290476799011 -0.725435197353363 0
v -4456.02685546875 35173.3203125 194.09130859375
vn -0.688290476799011 -0.725435197353363 0
v -4456.02685546875 35173.3203125 194.09130859375
vn -0.660571694374084 -0.750762939453125 0
v -4456.02685546875 35173.3203125 494.09130859375
vn -0.660571694374084 -0.750762939453125 0
v -4443.08154296875 35161.9296875 494.09130859375
vn -0.660571694374084 -0.750762939453125 0
v -4443.08154296875 35161.9296875 194.09130859375
vn -0.660571694374084 -0.750762939453125 0
v -4443.08154296875 35161.9296875 194.09130859375
vn -0.631921648979187 -0.77503228187561 0
v -4443.08154296875 35161.9296875 494.09130859375
vn -0.631921648979187 -0.77503228187561 0
v -4429.7177734375 35151.03125 494.09130859375
vn -0.631921648979187 -0.77503228187561 0
v -4429.7177734375 35151.03125 194.09130859375
vn -0.631921648979187 -0.77503228187561 0
v -4429.7177734375 35151.03125 194.09130859375
vn -0.602380692958832 -0.798208951950073 0
v -4429.7177734375 35151.03125 494.09130859375
vn -0.602380692958832 -0.798208951950073 0
v -4415.95434570313 35140.64453125 494.09130859375
vn -0.602380692958832 -0.798208951950073 0
v -4415.95434570313 35140.64453125 194.09130859375
vn -0.602380692958832 -0.798208951950073 0
v -4415.95434570313 35140.64453125 194.09130859375
vn -0.571990489959717 -0.820260226726532 0
v -4415.95434570313 35140.64453125 494.09130859375
vn -0.571990489959717 -0.820260226726532 0
v -4401.810546875 35130.78125 494.09130859375
vn -0.571990489959717 -0.820260226726532 0
v -4401.810546875 35130.78125 194.09130859375
vn -0.571990489959717 -0.820260226726532 0
v -4401.810546875 35130.78125 194.09130859375
vn -0.540793895721436 -0.841155111789703 0
v -4401.810546875 35130.78125 494.09130859375
vn -0.540793895721436 -0.841155111789703 0
v -4387.30639648438 35121.45703125 494.09130859375
vn -0.540793895721436 -0.841155111789703 0
v -4387.30639648438 35121.45703125 194.09130859375
vn -0.540793895721436 -0.841155111789703 0
v -4387.30639648438 35121.45703125 194.09130859375
vn -0.508834898471832 -0.860864162445068 0
v -4387.30639648438 35121.45703125 494.09130859375
vn -0.508834898471832 -0.860864162445068 0
v -4372.46264648438 35112.68359375 494.09130859375
vn -0.508834898471832 -0.860864162445068 0
v -4372.46264648438 35112.68359375 194.09130859375
vn -0.508834898471832 -0.860864162445068 0
v -4372.46264648438 35112.68359375 194.09130859375
vn -0.47615846991539 -0.879359483718872 0
v -4372.46264648438 35112.68359375 494.09130859375
vn -0.47615846991539 -0.879359483718872 0
v -4357.2998046875 35104.47265625 494.09130859375
vn -0.47615846991539 -0.879359483718872 0
v -4357.2998046875 35104.47265625 194.09130859375
vn -0.47615846991539 -0.879359483718872 0
v -4357.2998046875 35104.47265625 194.09130859375
vn -0.442810773849487 -0.896615087985992 0
v -4357.2998046875 35104.47265625 494.09130859375
vn -0.442810773849487 -0.896615087985992 0
v -4341.83959960938 35096.83984375 494.09130859375
vn -0.442810773849487 -0.896615087985992 0
v -4341.83959960938 35096.83984375 194.09130859375
vn -0.442810773849487 -0.896615087985992 0
v -4341.83959960938 35096.83984375 194.09130859375
vn -0.40883880853653 -0.912606596946716 0
v -4341.83959960938 35096.83984375 494.09130859375
vn -0.40883880853653 -0.912606596946716 0
v -4326.103515625 35089.7890625 494.09130859375
vn -0.40883880853653 -0.912606596946716 0
v -4326.103515625 35089.7890625 194.09130859375
vn -0.40883880853653 -0.912606596946716 0
v -4326.103515625 35089.7890625 194.09130859375
vn -0.374290436506271 -0.927311539649963 0
v -4326.103515625 35089.7890625 494.09130859375
vn -0.374290436506271 -0.927311539649963 0
v -4310.11376953125 35083.3359375 494.09130859375
vn -0.374290436506271 -0.927311539649963 0
v -4310.11376953125 35083.3359375 194.09130859375
vn -0.374290436506271 -0.927311539649963 0
v -4310.11376953125 35083.3359375 194.09130859375
vn -0.339214384555817 -0.940709114074707 0
v -4310.11376953125 35083.3359375 494.09130859375
vn -0.339214384555817 -0.940709114074707 0
v -4293.8935546875 35077.484375 494.09130859375
vn -0.339214384555817 -0.940709114074707 0
v -4293.8935546875 35077.484375 194.09130859375
vn -0.339214384555817 -0.940709114074707 0
v -4293.8935546875 35077.484375 194.09130859375
vn -0.303660094738007 -0.952780425548553 0
v -4293.8935546875 35077.484375 494.09130859375
vn -0.303660094738007 -0.952780425548553 0
v -4277.46484375 35072.25 494.09130859375
vn -0.303660094738007 -0.952780425548553 0
v -4277.46484375 35072.25 194.09130859375
vn -0.303660094738007 -0.952780425548553 0
v -4277.46484375 35072.25 194.09130859375
vn -0.267677694559097 -0.963508486747742 0
v -4277.46484375 35072.25 494.09130859375
vn -0.267677694559097 -0.963508486747742 0
v -4260.85107421875 35067.6328125 494.09130859375
vn -0.267677694559097 -0.963508486747742 0
v -4260.85107421875 35067.6328125 194.09130859375
vn -0.267677694559097 -0.963508486747742 0
v -4260.85107421875 35067.6328125 194.09130859375
vn -0.231317922472954 -0.972878217697144 0
v -4260.85107421875 35067.6328125 494.09130859375
vn -0.231317922472954 -0.972878217697144 0
v -4244.07568359375 35063.64453125 494.09130859375
vn -0.231317922472954 -0.972878217697144 0
v -4244.07568359375 35063.64453125 194.09130859375
vn -0.231317922472954 -0.972878217697144 0
v -4244.07568359375 35063.64453125 194.09130859375
vn -0.194632023572922 -0.980876326560974 0
v -4244.07568359375 35063.64453125 494.09130859375
vn -0.194632023572922 -0.980876326560974 0
v -4227.162109375 35060.2890625 494.09130859375
vn -0.194632023572922 -0.980876326560974 0
v -4227.162109375 35060.2890625 194.09130859375
vn -0.194632023572922 -0.980876326560974 0
v -4227.162109375 35060.2890625 194.09130859375
vn 0 0 -1
v 5414.94921875 35060.2890625 194.09130859375
vn 0 0 -1
v 5414.94921875 35210.2890625 194.09130859375
vn 0 0 -1
v -4492.1728515625 35210.2890625 194.09130859375
vn 0 0 -1
v -4480.58984375 35197.515625 194.09130859375
vn 0 0 -1
v -4468.53564453125 35185.1875 194.09130859375
vn 0 0 -1
v -4456.02685546875 35173.3203125 194.09130859375
vn 0 0 -1
v -4443.08154296875 35161.9296875 194.09130859375
vn 0 0 -1
v -4429.7177734375 35151.03125 194.09130859375
vn 0 0 -1
v -4415.95434570313 35140.64453125 194.09130859375
vn 0 0 -1
v -4401.810546875 35130.78125 194.09130859375
vn 0 0 -1
v -4387.30639648438 35121.45703125 194.09130859375
vn 0 0 -1
v -4372.46264648438 35112.68359375 194.09130859375
vn 0 0 -1
v -4357.2998046875 35104.47265625 194.09130859375
vn 0 0 -1
v -4341.83959960938 35096.83984375 194.09130859375
vn 0 0 -1
v -4326.103515625 35089.7890625 194.09130859375
vn 0 0 -1
v -4310.11376953125 35083.3359375 194.09130859375
vn 0 0 -1
v -4293.8935546875 35077.484375 194.09130859375
vn 0 0 -1
v -4277.46484375 35072.25 194.09130859375
vn 0 0 -1
v -4260.85107421875 35067.6328125 194.09130859375
vn 0 0 -1
v -4244.07568359375 35063.64453125 194.09130859375
vn 0 0 -1
v 5414.94921875 35060.2890625 494.09130859375
vn 0 0 1
v -4227.162109375 35060.2890625 494.09130859375
vn 0 0 1
v -4244.07568359375 35063.64453125 494.09130859375
vn 0 0 1
v -4260.85107421875 35067.6328125 494.09130859375
vn 0 0 1
v -4277.46484375 35072.25 494.09130859375
vn 0 0 1
v -4293.8935546875 35077.484375 494.09130859375
vn 0 0 1
v -4310.11376953125 35083.3359375 494.09130859375
vn 0 0 1
v -4326.103515625 35089.7890625 494.09130859375
vn 0 0 1
v -4341.83959960938 35096.83984375 494.09130859375
vn 0 0 1
v -4357.2998046875 35104.47265625 494.09130859375
vn 0 0 1
v -4372.46264648438 35112.68359375 494.09130859375
vn 0 0 1
v -4387.30639648438 35121.45703125 494.09130859375
vn 0 0 1
v -4401.810546875 35130.78125 494.09130859375
vn 0 0 1
v -4415.95434570313 35140.64453125 494.09130859375
vn 0 0 1
v -4429.7177734375 35151.03125 494.09130859375
vn 0 0 1
v -4443.08154296875 35161.9296875 494.09130859375
vn 0 0 1
v -4456.02685546875 35173.3203125 494.09130859375
vn 0 0 1
v -4468.53564453125 35185.1875 494.09130859375
vn 0 0 1
v -4480.58984375 35197.515625 494.09130859375
vn 0 0 1
v -4492.1728515625 35210.2890625 494.09130859375
vn 0 0 1
v 5414.94921875 35210.2890625 494.09130859375
vn 0 0 1
f 125//125 124//124 126//126
f 124//124 123//123 126//126
f 123//123 122//122 126//126
f 122//122 121//121 126//126
f 121//121 120//120 126//126
f 120//120 119//119 126//126
f 119//119 118//118 126//126
f 118//118 117//117 126//126
f 117//117 116//116 126//126
f 116//116 115//115 126//126
f 115//115 114//114 126//126
f 114//114 113//113 126//126
f 113//113 112//112 126//126
f 112//112 111//111 126//126
f 111//111 110//110 126//126
f 110//110 109//109 126//126
f 109//109 108//108 126//126
f 108//108 107//107 126//126
f 107//107 106//106 126//126
f 87//87 89//89 88//88
f 87//87 90//90 89//89
f 87//87 91//91 90//90
f 87//87 92//92 91//91
f 87//87 93//93 92//92
f 87//87 94//94 93//93
f 87//87 95//95 94//94
f 87//87 96//96 95//95
f 87//87 97//97 96//96
f 87//87 98//98 97//97
f 87//87 99//99 98//98
f 87//87 100//100 99//99
f 87//87 101//101 100//100
f 87//87 102//102 101//101
f 87//87 103//103 102//102
f 87//87 104//104 103//103
f 87//87 105//105 104//104
f 87//87 86//86 105//105
f 86//86 85//85 105//105
f 83//83 81//81 84//84
f 83//83 82//82 81//81
f 79//79 77//77 80//80
f 79//79 78//78 77//77
f 75//75 73//73 76//76
f 75//75 74//74 73//73
f 71//71 69//69 72//72
f 71//71 70//70 69//69
f 67//67 65//65 68//68
f 67//67 66//66 65//65
f 63//63 61//61 64//64
f 63//63 62//62 61//61
f 59//59 57//57 60//60
f 59//59 58//58 57//57
f 55//55 53//53 56//56
f 55//55 54//54 53//53
f 51//51 49//49 52//52
f 51//51 50//50 49//49
f 47//47 45//45 48//48
f 47//47 46//46 45//45
f 43//43 41//41 44//44
f 43//43 42//42 41//41
f 39//39 37//37 40//40
f 39//39 38//38 37//37
f 35//35 33//33 36//36
f 35//35 34//34 33//33
f 31//31 29//29 32//32
f 31//31 30//30 29//29
f 27//27 25//25 28//28
f 27//27 26//26 25//25
f 23//23 21//21 24//24
f 23//23 22//22 21//21
f 19//19 17//17 20//20
f 19//19 18//18 17//17
f 15//15 13//13 16//16
f 15//15 14//14 13//13
f 11//11 9//9 12//12
f 11//11 10//10 9//9
f 7//7 5//5 8//8
f 7//7 6//6 5//5
f 3//3 1//1 4//4
f 3//3 2//2 1//1
