v -4492.1728515625 35210.2890625 194.09130859375
vn 0 -1 0
v -4492.1728515625 35210.2890625 494.09130859375
vn 0 -1 0
v -3392.45458984375 35210.2890625 494.09130859375
vn 0 -1 0
v -3392.45458984375 35210.2890625 194.09130859375
vn 0 -1 0
v -3392.45458984375 35210.2890625 194.09130859375
vn 1 0 0
v -3392.45458984375 35210.2890625 494.09130859375
vn 1 0 0
v -3392.45458984375 35510.2890625 494.09130859375
vn 1 0 0
v -3392.45458984375 35510.2890625 194.09130859375
vn 1 0 0
v -3392.45458984375 35510.2890625 194.09130859375
vn -1.51852827729761E-13 1 0
v -3392.45458984375 35510.2890625 494.09130859375
vn -1.51852827729761E-13 1 0
v -4605.478515625 35510.2890625 494.09130859375
vn -1.51852827729761E-13 1 0
v -4605.478515625 35510.2890625 194.09130859375
vn -1.51852827729761E-13 1 0
v -4605.478515625 35510.2890625 194.09130859375
vn -0.999705493450165 -0.0242667142301798 0
v -4605.478515625 35510.2890625 494.09130859375
vn -0.999705493450165 -0.0242667142301798 0
v -4605.03686523438 35492.09765625 494.09130859375
vn -0.999705493450165 -0.0242667142301798 0
v -4605.03686523438 35492.09765625 194.09130859375
vn -0.999705493450165 -0.0242667142301798 0
v -4605.03686523438 35492.09765625 194.09130859375
vn -0.997959136962891 -0.0638554990291595 0
v -4605.03686523438 35492.09765625 494.09130859375
vn -0.997959136962891 -0.0638554990291595 0
v -4603.87475585938 35473.9375 494.09130859375
vn -0.997959136962891 -0.0638554990291595 0
v -4603.87475585938 35473.9375 194.09130859375
vn -0.997959136962891 -0.0638554990291595 0
v -4603.87475585938 35473.9375 194.09130859375
vn -0.994645655155182 -0.10334400832653 0
v -4603.87475585938 35473.9375 494.09130859375
vn -0.994645655155182 -0.10334400832653 0
v -4601.994140625 35455.8359375 494.09130859375
vn -0.994645655155182 -0.10334400832653 0
v -4601.994140625 35455.8359375 194.09130859375
vn -0.994645655155182 -0.10334400832653 0
v -4601.994140625 35455.8359375 194.09130859375
vn -0.989770293235779 -0.142670229077339 0
v -4601.994140625 35455.8359375 494.09130859375
vn -0.989770293235779 -0.142670229077339 0
v -4599.39794921875 35437.82421875 494.09130859375
vn -0.989770293235779 -0.142670229077339 0
v -4599.39794921875 35437.82421875 194.09130859375
vn -0.989770293235779 -0.142670229077339 0
v -4599.39794921875 35437.82421875 194.09130859375
vn -0.983340620994568 -0.181772410869598 0
v -4599.39794921875 35437.82421875 494.09130859375
vn -0.983340620994568 -0.181772410869598 0
v -4596.09008789063 35419.9296875 494.09130859375
vn -0.983340620994568 -0.181772410869598 0
v -4596.09008789063 35419.9296875 194.09130859375
vn -0.983340620994568 -0.181772410869598 0
v -4596.09008789063 35419.9296875 194.09130859375
vn -0.975366830825806 -0.220589160919189 0
v -4596.09008789063 35419.9296875 494.09130859375
vn -0.975366830825806 -0.220589160919189 0
v -4592.07568359375 35402.1796875 494.09130859375
vn -0.975366830825806 -0.220589160919189 0
v -4592.07568359375 35402.1796875 194.09130859375
vn -0.975366830825806 -0.220589160919189 0
v -4592.07568359375 35402.1796875 194.09130859375
vn -0.96586138010025 -0.259059518575668 0
v -4592.07568359375 35402.1796875 494.09130859375
vn -0.96586138010025 -0.259059518575668 0
v -4587.361328125 35384.6015625 494.09130859375
vn -0.96586138010025 -0.259059518575668 0
v -4587.361328125 35384.6015625 194.09130859375
vn -0.96586138010025 -0.259059518575668 0
v -4587.361328125 35384.6015625 194.09130859375
vn -0.954839169979095 -0.297123044729233 0
v -4587.361328125 35384.6015625 494.09130859375
vn -0.954839169979095 -0.297123044729233 0
v -4581.95434570313 35367.2265625 494.09130859375
vn -0.954839169979095 -0.297123044729233 0
v -4581.95434570313 35367.2265625 194.09130859375
vn -0.954839169979095 -0.297123044729233 0
v -4581.95434570313 35367.2265625 194.09130859375
vn -0.942317605018616 -0.334720015525818 0
v -4581.95434570313 35367.2265625 494.09130859375
vn -0.942317605018616 -0.334720015525818 0
v -4575.86303710938 35350.078125 494.09130859375
vn -0.942317605018616 -0.334720015525818 0
v -4575.86303710938 35350.078125 194.09130859375
vn -0.942317605018616 -0.334720015525818 0
v -4575.86303710938 35350.078125 194.09130859375
vn -0.928316295146942 -0.371791362762451 0
v -4575.86303710938 35350.078125 494.09130859375
vn -0.928316295146942 -0.371791362762451 0
v -4569.09716796875 35333.18359375 494.09130859375
vn -0.928316295146942 -0.371791362762451 0
v -4569.09716796875 35333.18359375 194.09130859375
vn -0.928316295146942 -0.371791362762451 0
v -4569.09716796875 35333.18359375 194.09130859375
vn -0.912857234477997 -0.40827888250351 0
v -4569.09716796875 35333.18359375 494.09130859375
vn -0.912857234477997 -0.40827888250351 0
v -4561.66723632813 35316.57421875 494.09130859375
vn -0.912857234477997 -0.40827888250351 0
v -4561.66723632813 35316.57421875 194.09130859375
vn -0.912857234477997 -0.40827888250351 0
v -4561.66723632813 35316.57421875 194.09130859375
vn -0.895964682102203 -0.444125264883041 0
v -4561.66723632813 35316.57421875 494.09130859375
vn -0.895964682102203 -0.444125264883041 0
v -4553.58520507813 35300.265625 494.09130859375
vn -0.895964682102203 -0.444125264883041 0
v -4553.58520507813 35300.265625 194.09130859375
vn -0.895964682102203 -0.444125264883041 0
v -4553.58520507813 35300.265625 194.09130859375
vn -0.877665221691132 -0.479274243116379 0
v -4553.58520507813 35300.265625 494.09130859375
vn -0.877665221691132 -0.479274243116379 0
v -4544.86328125 35284.296875 494.09130859375
vn -0.877665221691132 -0.479274243116379 0
v -4544.86328125 35284.296875 194.09130859375
vn -0.877665221691132 -0.479274243116379 0
v -4544.86328125 35284.296875 194.09130859375
vn -0.857987463474274 -0.513670563697815 0
v -4544.86328125 35284.296875 494.09130859375
vn -0.857987463474274 -0.513670563697815 0
v -4535.515625 35268.68359375 494.09130859375
vn -0.857987463474274 -0.513670563697815 0
v -4535.515625 35268.68359375 194.09130859375
vn -0.857987463474274 -0.513670563697815 0
v -4535.515625 35268.68359375 194.09130859375
vn -0.836962461471558 -0.547260284423828 0
v -4535.515625 35268.68359375 494.09130859375
vn -0.836962461471558 -0.547260284423828 0
v -4525.55639648438 35253.44921875 494.09130859375
vn -0.836962461471558 -0.547260284423828 0
v -4525.55639648438 35253.44921875 194.09130859375
vn -0.836962461471558 -0.547260284423828 0
v -4525.55639648438 35253.44921875 194.09130859375
vn -0.814623117446899 -0.579990684986115 0
v -4525.55639648438 35253.44921875 494.09130859375
vn -0.814623117446899 -0.579990684986115 0
v -4515.00170898438 35238.625 494.09130859375
vn -0.814623117446899 -0.579990684986115 0
v -4515.00170898438 35238.625 194.09130859375
vn -0.814623117446899 -0.579990684986115 0
v -4515.00170898438 35238.625 194.09130859375
vn -0.791004598140717 -0.611810207366943 0
v -4515.00170898438 35238.625 494.09130859375
vn -0.791004598140717 -0.611810207366943 0
v -4503.8681640625 35224.23046875 494.09130859375
vn -0.791004598140717 -0.611810207366943 0
v -4503.8681640625 35224.23046875 194.09130859375
vn -0.791004598140717 -0.611810207366943 0
v -4503.8681640625 35224.23046875 194.09130859375
vn -0.766143918037415 -0.642669081687927 0
v -4503.8681640625 35224.23046875 494.09130859375
vn -0.766143918037415 -0.642669081687927 0
v -4492.1728515625 35210.2890625 494.09130859375
vn -0.766143918037415 -0.642669081687927 0
v -4492.1728515625 35210.2890625 194.09130859375
vn -0.766143918037415 -0.642669081687927 0
v -4492.1728515625 35210.2890625 194.09130859375
vn 0 0 -1
v -3392.45458984375 35210.2890625 194.09130859375
vn 0 0 -1
v -3392.45458984375 35510.2890625 194.09130859375
vn 0 0 -1
v -4605.478515625 35510.2890625 194.09130859375
vn 0 0 -1
v -4605.03686523438 35492.09765625 194.09130859375
vn 0 0 -1
v -4603.87475585938 35473.9375 194.09130859375
vn 0 0 -1
v -4601.994140625 35455.8359375 194.09130859375
vn 0 0 -1
v -4599.39794921875 35437.82421875 194.09130859375
vn 0 0 -1
v -4596.09008789063 35419.9296875 194.09130859375
vn 0 0 -1
v -4592.07568359375 35402.1796875 194.09130859375
vn 0 0 -1
v -4587.361328125 35384.6015625 194.09130859375
vn 0 0 -1
v -4581.95434570313 35367.2265625 194.09130859375
vn 0 0 -1
v -4575.86303710938 35350.078125 194.09130859375
vn 0 0 -1
v -4569.09716796875 35333.18359375 194.09130859375
vn 0 0 -1
v -4561.66723632813 35316.57421875 194.09130859375
vn 0 0 -1
v -4553.58520507813 35300.265625 194.09130859375
vn 0 0 -1
v -4544.86328125 35284.296875 194.09130859375
vn 0 0 -1
v -4535.515625 35268.68359375 194.09130859375
vn 0 0 -1
v -4525.55639648438 35253.44921875 194.09130859375
vn 0 0 -1
v -4515.00170898438 35238.625 194.09130859375
vn 0 0 -1
v -4503.8681640625 35224.23046875 194.09130859375
vn 0 0 -1
v -3392.45458984375 35210.2890625 494.09130859375
vn 0 0 1
v -4492.1728515625 35210.2890625 494.09130859375
vn 0 0 1
v -4503.8681640625 35224.23046875 494.09130859375
vn 0 0 1
v -4515.00170898438 35238.625 494.09130859375
vn 0 0 1
v -4525.55639648438 35253.44921875 494.09130859375
vn 0 0 1
v -4535.515625 35268.68359375 494.09130859375
vn 0 0 1
v -4544.86328125 35284.296875 494.09130859375
vn 0 0 1
v -4553.58520507813 35300.265625 494.09130859375
vn 0 0 1
v -4561.66723632813 35316.57421875 494.09130859375
vn 0 0 1
v -4569.09716796875 35333.18359375 494.09130859375
vn 0 0 1
v -4575.86303710938 35350.078125 494.09130859375
vn 0 0 1
v -4581.95434570313 35367.2265625 494.09130859375
vn 0 0 1
v -4587.361328125 35384.6015625 494.09130859375
vn 0 0 1
v -4592.07568359375 35402.1796875 494.09130859375
vn 0 0 1
v -4596.09008789063 35419.9296875 494.09130859375
vn 0 0 1
v -4599.39794921875 35437.82421875 494.09130859375
vn 0 0 1
v -4601.994140625 35455.8359375 494.09130859375
vn 0 0 1
v -4603.87475585938 35473.9375 494.09130859375
vn 0 0 1
v -4605.03686523438 35492.09765625 494.09130859375
vn 0 0 1
v -4605.478515625 35510.2890625 494.09130859375
vn 0 0 1
v -3392.45458984375 35510.2890625 494.09130859375
vn 0 0 1
f 125//125 124//124 126//126
f 124//124 123//123 126//126
f 123//123 122//122 126//126
f 122//122 121//121 126//126
f 121//121 120//120 126//126
f 120//120 119//119 126//126
f 119//119 118//118 126//126
f 118//118 117//117 126//126
f 117//117 116//116 126//126
f 116//116 115//115 126//126
f 115//115 114//114 126//126
f 114//114 113//113 126//126
f 113//113 112//112 126//126
f 112//112 111//111 126//126
f 111//111 110//110 126//126
f 110//110 109//109 126//126
f 109//109 108//108 126//126
f 108//108 107//107 126//126
f 107//107 106//106 126//126
f 87//87 89//89 88//88
f 87//87 90//90 89//89
f 87//87 91//91 90//90
f 87//87 92//92 91//91
f 87//87 93//93 92//92
f 87//87 94//94 93//93
f 87//87 95//95 94//94
f 87//87 96//96 95//95
f 87//87 97//97 96//96
f 87//87 98//98 97//97
f 87//87 99//99 98//98
f 87//87 100//100 99//99
f 87//87 101//101 100//100
f 87//87 102//102 101//101
f 87//87 103//103 102//102
f 87//87 104//104 103//103
f 87//87 105//105 104//104
f 87//87 86//86 105//105
f 86//86 85//85 105//105
f 83//83 81//81 84//84
f 83//83 82//82 81//81
f 79//79 77//77 80//80
f 79//79 78//78 77//77
f 75//75 73//73 76//76
f 75//75 74//74 73//73
f 71//71 69//69 72//72
f 71//71 70//70 69//69
f 67//67 65//65 68//68
f 67//67 66//66 65//65
f 63//63 61//61 64//64
f 63//63 62//62 61//61
f 59//59 57//57 60//60
f 59//59 58//58 57//57
f 55//55 53//53 56//56
f 55//55 54//54 53//53
f 51//51 49//49 52//52
f 51//51 50//50 49//49
f 47//47 45//45 48//48
f 47//47 46//46 45//45
f 43//43 41//41 44//44
f 43//43 42//42 41//41
f 39//39 37//37 40//40
f 39//39 38//38 37//37
f 35//35 33//33 36//36
f 35//35 34//34 33//33
f 31//31 29//29 32//32
f 31//31 30//30 29//29
f 27//27 25//25 28//28
f 27//27 26//26 25//25
f 23//23 21//21 24//24
f 23//23 22//22 21//21
f 19//19 17//17 20//20
f 19//19 18//18 17//17
f 15//15 13//13 16//16
f 15//15 14//14 13//13
f 11//11 9//9 12//12
f 11//11 10//10 9//9
f 7//7 5//5 8//8
f 7//7 6//6 5//5
f 3//3 1//1 4//4
f 3//3 2//2 1//1
