v -2242.78759765625 45563.40625 491.72216796875
vn 0.499187439680099 0 -0.866494059562683
v 3796.693359375 45563.40625 3971.06884765625
vn 0.499187439680099 0 -0.866494059562683
v 3796.693359375 45713.40625 3971.06884765625
vn 0.499187439680099 0 -0.866494059562683
v -2242.78759765625 45713.40625 491.72216796875
vn 0.499187439680099 0 -0.866494059562683
v -2663.99365234375 45563.40625 491.72216796875
vn 0 -1 0
v -2733.74951171875 45563.40625 612.80615234375
vn 0 -1 0
v 3621.9775390625 45563.40625 4274.34130859375
vn 0 -1 0
v 3796.693359375 45563.40625 3971.06884765625
vn 0 -1 0
v -2242.78759765625 45563.40625 491.72216796875
vn 0 -1 0
v 3621.9775390625 45563.40625 4274.34130859375
vn -0.499187439680099 0 0.866494059562683
v -2733.74951171875 45563.40625 612.80615234375
vn -0.499187439680099 0 0.866494059562683
v -2733.74951171875 45713.40625 612.80615234375
vn -0.499187439680099 0 0.866494059562683
v 3621.9775390625 45713.40625 4274.34130859375
vn -0.499187439680099 0 0.866494059562683
v -2242.78759765625 45713.40625 491.72216796875
vn 0 1 0
v 3796.693359375 45713.40625 3971.06884765625
vn 0 1 0
v 3621.9775390625 45713.40625 4274.34130859375
vn 0 1 0
v -2733.74951171875 45713.40625 612.80615234375
vn 0 1 0
v -2663.99365234375 45713.40625 491.72216796875
vn 0 1 0
v 3796.693359375 45713.40625 3971.06884765625
vn 0.866494059562683 0 0.499187439680099
v 3796.693359375 45563.40625 3971.06884765625
vn 0.866494059562683 0 0.499187439680099
v 3621.9775390625 45563.40625 4274.34130859375
vn 0.866494059562683 0 0.499187439680099
v 3621.9775390625 45713.40625 4274.34130859375
vn 0.866494059562683 0 0.499187439680099
v -2663.99365234375 45713.40625 491.72216796875
vn -0.866494059562683 0 -0.499187439680099
v -2733.74951171875 45713.40625 612.80615234375
vn -0.866494059562683 0 -0.499187439680099
v -2733.74951171875 45563.40625 612.80615234375
vn -0.866494059562683 0 -0.499187439680099
v -2663.99365234375 45563.40625 491.72216796875
vn -0.866494059562683 0 -0.499187439680099
v -2663.99365234375 45713.40625 491.72216796875
vn 0 0 -1
v -2663.99365234375 45563.40625 491.72216796875
vn 0 0 -1
v -2242.78759765625 45563.40625 491.72216796875
vn 0 0 -1
v -2242.78759765625 45713.40625 491.72216796875
vn 0 0 -1
f 29//29 27//27 30//30
f 29//29 28//28 27//27
f 25//25 23//23 26//26
f 25//25 24//24 23//23
f 21//21 19//19 22//22
f 21//21 20//20 19//19
f 16//16 18//18 17//17
f 16//16 15//15 18//18
f 15//15 14//14 18//18
f 12//12 10//10 13//13
f 12//12 11//11 10//10
f 6//6 5//5 7//7
f 5//5 9//9 7//7
f 9//9 8//8 7//7
f 3//3 1//1 4//4
f 3//3 2//2 1//1
