v 4926.2373046875 35810.2890625 -2291.93115234375
vn -0.414173245429993 0 -0.910198092460632
v 574.1708984375 35810.2890625 -311.58203125
vn -0.414173245429993 0 -0.910198092460632
v 574.1708984375 35510.2890625 -311.58203125
vn -0.414173245429993 0 -0.910198092460632
v 4926.2373046875 35510.2890625 -2291.93115234375
vn -0.414173245429993 0 -0.910198092460632
v 4926.2373046875 35510.2890625 -2291.93115234375
vn 0 -1 0
v 574.1708984375 35510.2890625 -311.58203125
vn 0 -1 0
v 698.4228515625 35510.2890625 -38.52294921875
vn 0 -1 0
v 5071.6083984375 35510.2890625 -2028.4814453125
vn 0 -1 0
v 5139.1767578125 35510.2890625 -2291.93115234375
vn 0 -1 0
v 5071.6083984375 35510.2890625 -2028.4814453125
vn 0.414173245429993 0 0.910198092460632
v 698.4228515625 35510.2890625 -38.52294921875
vn 0.414173245429993 0 0.910198092460632
v 698.4228515625 35810.2890625 -38.52294921875
vn 0.414173245429993 0 0.910198092460632
v 5071.6083984375 35810.2890625 -2028.4814453125
vn 0.414173245429993 0 0.910198092460632
v 5139.1767578125 35810.2890625 -2291.93115234375
vn 0 1 0
v 5071.6083984375 35810.2890625 -2028.4814453125
vn 0 1 0
v 698.4228515625 35810.2890625 -38.52294921875
vn 0 1 0
v 574.1708984375 35810.2890625 -311.58203125
vn 0 1 0
v 4926.2373046875 35810.2890625 -2291.93115234375
vn 0 1 0
v 574.1708984375 35510.2890625 -311.58203125
vn -0.910198092460632 0 0.414173245429993
v 574.1708984375 35810.2890625 -311.58203125
vn -0.910198092460632 0 0.414173245429993
v 698.4228515625 35810.2890625 -38.52294921875
vn -0.910198092460632 0 0.414173245429993
v 698.4228515625 35510.2890625 -38.52294921875
vn -0.910198092460632 0 0.414173245429993
v 5071.6083984375 35810.2890625 -2028.4814453125
vn 0.968648612499237 0 0.248434871435165
v 5139.1767578125 35810.2890625 -2291.93115234375
vn 0.968648612499237 0 0.248434871435165
v 5139.1767578125 35510.2890625 -2291.93115234375
vn 0.968648612499237 0 0.248434871435165
v 5071.6083984375 35510.2890625 -2028.4814453125
vn 0.968648612499237 0 0.248434871435165
v 5139.1767578125 35510.2890625 -2291.93115234375
vn -9.88098491916389E-15 0 -1
v 5139.1767578125 35810.2890625 -2291.93115234375
vn -9.88098491916389E-15 0 -1
v 4926.2373046875 35810.2890625 -2291.93115234375
vn -9.88098491916389E-15 0 -1
v 4926.2373046875 35510.2890625 -2291.93115234375
vn -9.88098491916389E-15 0 -1
f 29//29 27//27 30//30
f 29//29 28//28 27//27
f 25//25 23//23 26//26
f 25//25 24//24 23//23
f 21//21 19//19 22//22
f 21//21 20//20 19//19
f 15//15 14//14 16//16
f 14//14 18//18 16//16
f 18//18 17//17 16//16
f 12//12 10//10 13//13
f 12//12 11//11 10//10
f 7//7 9//9 8//8
f 7//7 6//6 9//9
f 6//6 5//5 9//9
f 3//3 1//1 4//4
f 3//3 2//2 1//1
