v 5606.7275390625 35510.2890625 -2907.3525390625
vn -3.88578058618805E-15 0 -1
v 5606.7275390625 35810.2890625 -2907.3525390625
vn -3.88578058618805E-15 0 -1
v 5297.017578125 35810.2890625 -2907.3525390625
vn -3.88578058618805E-15 0 -1
v 5297.017578125 35510.2890625 -2907.3525390625
vn -3.88578058618805E-15 0 -1
v 5297.017578125 35510.2890625 -2907.3525390625
vn -0.968648612499237 0 -0.248434871435165
v 5297.017578125 35810.2890625 -2907.3525390625
vn -0.968648612499237 0 -0.248434871435165
v 5071.1630859375 35810.2890625 -2026.7421875
vn -0.968648612499237 0 -0.248434871435165
v 5071.1630859375 35510.2890625 -2026.7421875
vn -0.968648612499237 0 -0.248434871435165
v 5071.1630859375 35510.2890625 -2026.7421875
vn -2.4980018054066E-15 0 1
v 5071.1630859375 35810.2890625 -2026.7421875
vn -2.4980018054066E-15 0 1
v 5380.8720703125 35810.2890625 -2026.7421875
vn -2.4980018054066E-15 0 1
v 5380.8720703125 35510.2890625 -2026.7421875
vn -2.4980018054066E-15 0 1
v 5380.8720703125 35510.2890625 -2026.7421875
vn 0.968648612499237 0 0.248434871435165
v 5380.8720703125 35810.2890625 -2026.7421875
vn 0.968648612499237 0 0.248434871435165
v 5606.7275390625 35810.2890625 -2907.3525390625
vn 0.968648612499237 0 0.248434871435165
v 5606.7275390625 35510.2890625 -2907.3525390625
vn 0.968648612499237 0 0.248434871435165
v 5606.7275390625 35510.2890625 -2907.3525390625
vn 0 -1 0
v 5297.017578125 35510.2890625 -2907.3525390625
vn 0 -1 0
v 5071.1630859375 35510.2890625 -2026.7421875
vn 0 -1 0
v 5380.8720703125 35510.2890625 -2026.7421875
vn 0 -1 0
v 5297.017578125 35810.2890625 -2907.3525390625
vn 0 1 0
v 5606.7275390625 35810.2890625 -2907.3525390625
vn 0 1 0
v 5380.8720703125 35810.2890625 -2026.7421875
vn 0 1 0
v 5071.1630859375 35810.2890625 -2026.7421875
vn 0 1 0
f 23//23 21//21 24//24
f 23//23 22//22 21//21
f 19//19 17//17 20//20
f 19//19 18//18 17//17
f 15//15 13//13 16//16
f 15//15 14//14 13//13
f 11//11 9//9 12//12
f 11//11 10//10 9//9
f 7//7 5//5 8//8
f 7//7 6//6 5//5
f 3//3 1//1 4//4
f 3//3 2//2 1//1
