v 3356.4677734375 46063.40625 3894.34619140625
vn 0 0 1
v 3356.4677734375 45713.40625 3894.34619140625
vn 0 0 1
v 2905.369140625 45713.40625 3894.34619140625
vn 0 0 1
v 2905.369140625 46063.40625 3894.34619140625
vn 0 0 1
v 2905.369140625 46063.40625 3894.34619140625
vn -0.997564077377319 5.83250920908255E-15 -0.0697564706206322
v 2905.369140625 45713.40625 3894.34619140625
vn -0.997564077377319 5.83250920908255E-15 -0.0697564706206322
v 3172.1396484375 45713.40625 79.34619140625
vn -0.997564077377319 5.83250920908255E-15 -0.0697564706206322
v 3172.1396484375 46063.40625 79.34619140625
vn -0.997564077377319 5.83250920908255E-15 -0.0697564706206322
v 2905.369140625 45713.40625 3894.34619140625
vn 0 -1 0
v 3356.4677734375 45713.40625 3894.34619140625
vn 0 -1 0
v 3624.287109375 45713.40625 64.34619140625
vn 0 -1 0
v 3624.287109375 45713.40625 -335.65380859375
vn 0 -1 0
v 3201.1591796875 45713.40625 -335.65380859375
vn 0 -1 0
v 3201.1591796875 45713.40625 79.34619140625
vn 0 -1 0
v 3172.1396484375 45713.40625 79.34619140625
vn 0 -1 0
v 3356.4677734375 45713.40625 3894.34619140625
vn 0.997564077377319 0 0.0697564706206322
v 3356.4677734375 46063.40625 3894.34619140625
vn 0.997564077377319 0 0.0697564706206322
v 3624.287109375 46063.40625 64.34619140625
vn 0.997564077377319 0 0.0697564706206322
v 3624.287109375 45713.40625 64.34619140625
vn 0.997564077377319 0 0.0697564706206322
v 3624.287109375 46063.40625 -335.65380859375
vn 0 1 0
v 3624.287109375 46063.40625 64.34619140625
vn 0 1 0
v 3356.4677734375 46063.40625 3894.34619140625
vn 0 1 0
v 2905.369140625 46063.40625 3894.34619140625
vn 0 1 0
v 3172.1396484375 46063.40625 79.34619140625
vn 0 1 0
v 3201.1591796875 46063.40625 79.34619140625
vn 0 1 0
v 3201.1591796875 46063.40625 -335.65380859375
vn 0 1 0
v 3201.1591796875 45713.40625 79.34619140625
vn 0 0 -1
v 3201.1591796875 46063.40625 79.34619140625
vn 0 0 -1
v 3172.1396484375 46063.40625 79.34619140625
vn 0 0 -1
v 3172.1396484375 45713.40625 79.34619140625
vn 0 0 -1
v 3201.1591796875 45713.40625 79.34619140625
vn -1 5.6843419707841E-15 0
v 3201.1591796875 45713.40625 -335.65380859375
vn -1 5.6843419707841E-15 0
v 3201.1591796875 46063.40625 -335.65380859375
vn -1 5.6843419707841E-15 0
v 3201.1591796875 46063.40625 79.34619140625
vn -1 5.6843419707841E-15 0
v 3201.1591796875 45713.40625 -335.65380859375
vn 0 0 -1
v 3624.287109375 45713.40625 -335.65380859375
vn 0 0 -1
v 3624.287109375 46063.40625 -335.65380859375
vn 0 0 -1
v 3201.1591796875 46063.40625 -335.65380859375
vn 0 0 -1
v 3624.287109375 45713.40625 -335.65380859375
vn 1 0 -7.3896441808545E-15
v 3624.287109375 45713.40625 64.34619140625
vn 1 0 -7.3896441808545E-15
v 3624.287109375 46063.40625 64.34619140625
vn 1 0 -7.3896441808545E-15
v 3624.287109375 46063.40625 -335.65380859375
vn 1 0 -7.3896441808545E-15
f 41//41 39//39 42//42
f 41//41 40//40 39//39
f 37//37 35//35 38//38
f 37//37 36//36 35//35
f 33//33 31//31 34//34
f 33//33 32//32 31//31
f 29//29 27//27 30//30
f 29//29 28//28 27//27
f 22//22 25//25 23//23
f 25//25 24//24 23//23
f 22//22 21//21 25//25
f 21//21 20//20 25//25
f 20//20 26//26 25//25
f 18//18 16//16 19//19
f 18//18 17//17 16//16
f 9//9 15//15 10//10
f 15//15 14//14 10//10
f 14//14 11//11 10//10
f 14//14 13//13 11//11
f 13//13 12//12 11//11
f 7//7 5//5 8//8
f 7//7 6//6 5//5
f 3//3 1//1 4//4
f 3//3 2//2 1//1
