v -2892.45458984375 35810.2890625 2982.24755859375
vn 0 1 0
v -2892.45458984375 35810.2890625 3239.34619140625
vn 0 1 0
v -3136.82275390625 35810.2890625 3239.34619140625
vn 0 1 0
v -4983.99560546875 35810.2890625 -4055.65380859375
vn 0 1 0
v -4674.52758789063 35810.2890625 -4055.65380859375
vn 0 1 0
v -4674.52758789063 35510.2890625 -4055.65380859375
vn 0 -1 0
v -4983.99560546875 35510.2890625 -4055.65380859375
vn 0 -1 0
v -3136.82275390625 35510.2890625 3239.34619140625
vn 0 -1 0
v -2892.45458984375 35510.2890625 3239.34619140625
vn 0 -1 0
v -2892.45458984375 35510.2890625 2982.24755859375
vn 0 -1 0
v -2892.45458984375 35510.2890625 2982.24755859375
vn 1 0 0
v -2892.45458984375 35510.2890625 3239.34619140625
vn 1 0 0
v -2892.45458984375 35810.2890625 3239.34619140625
vn 1 0 0
v -2892.45458984375 35810.2890625 2982.24755859375
vn 1 0 0
v -4674.52758789063 35810.2890625 -4055.65380859375
vn 0 0 -1
v -4983.99560546875 35810.2890625 -4055.65380859375
vn 0 0 -1
v -4983.99560546875 35510.2890625 -4055.65380859375
vn 0 0 -1
v -4674.52758789063 35510.2890625 -4055.65380859375
vn 0 0 -1
v -3136.82275390625 35810.2890625 3239.34619140625
vn 0 0 1
v -2892.45458984375 35810.2890625 3239.34619140625
vn 0 0 1
v -2892.45458984375 35510.2890625 3239.34619140625
vn 0 0 1
v -3136.82275390625 35510.2890625 3239.34619140625
vn 0 0 1
v -3136.82275390625 35510.2890625 3239.34619140625
vn -0.969405710697174 0 0.245464026927948
v -4983.99560546875 35510.2890625 -4055.65380859375
vn -0.969405710697174 0 0.245464026927948
v -4983.99560546875 35810.2890625 -4055.65380859375
vn -0.969405710697174 0 0.245464026927948
v -3136.82275390625 35810.2890625 3239.34619140625
vn -0.969405710697174 0 0.245464026927948
v -4674.52758789063 35510.2890625 -4055.65380859375
vn 0.969405710697174 0 -0.245464026927948
v -2892.45458984375 35510.2890625 2982.24755859375
vn 0.969405710697174 0 -0.245464026927948
v -2892.45458984375 35810.2890625 2982.24755859375
vn 0.969405710697174 0 -0.245464026927948
v -4674.52758789063 35810.2890625 -4055.65380859375
vn 0.969405710697174 0 -0.245464026927948
f 29//29 28//28 30//30
f 30//30 28//28 27//27
f 25//25 23//23 26//26
f 25//25 24//24 23//23
f 21//21 19//19 22//22
f 21//21 20//20 19//19
f 17//17 15//15 18//18
f 17//17 16//16 15//15
f 13//13 11//11 14//14
f 13//13 12//12 11//11
f 8//8 10//10 9//9
f 8//8 7//7 10//10
f 7//7 6//6 10//10
f 2//2 1//1 3//3
f 1//1 5//5 3//3
f 5//5 4//4 3//3
