v 2978.623046875 20040.435546875 5552.69482421875
vn 0 1 0
v 2978.623046875 20040.435546875 5897.69482421875
vn 0 1 0
v 2963.623046875 20040.435546875 5897.69482421875
vn 0 1 0
v 2963.623046875 20040.435546875 5552.69482421875
vn 0 1 0
v 2963.623046875 20040.435546875 5552.69482421875
vn -1 0 0
v 2963.623046875 20040.435546875 5897.69482421875
vn -1 0 0
v 2963.623046875 19820.435546875 5897.69482421875
vn -1 0 0
v 2963.623046875 19820.435546875 5552.69482421875
vn -1 0 0
v 2963.623046875 19820.435546875 5552.69482421875
vn 0 -1 0
v 2963.623046875 19820.435546875 5897.69482421875
vn 0 -1 0
v 2978.623046875 19820.435546875 5897.69482421875
vn 0 -1 0
v 2978.623046875 19820.435546875 5552.69482421875
vn 0 -1 0
v 2978.623046875 19820.435546875 5552.69482421875
vn 1 0 0
v 2978.623046875 19820.435546875 5897.69482421875
vn 1 0 0
v 2978.623046875 20040.435546875 5897.69482421875
vn 1 0 0
v 2978.623046875 20040.435546875 5552.69482421875
vn 1 0 0
v 2978.623046875 20040.435546875 5552.69482421875
vn 0 0 -1
v 2963.623046875 20040.435546875 5552.69482421875
vn 0 0 -1
v 2963.623046875 19820.435546875 5552.69482421875
vn 0 0 -1
v 2978.623046875 19820.435546875 5552.69482421875
vn 0 0 -1
v 2963.623046875 20040.435546875 5897.69482421875
vn 0 0 1
v 2978.623046875 20040.435546875 5897.69482421875
vn 0 0 1
v 2978.623046875 19820.435546875 5897.69482421875
vn 0 0 1
v 2963.623046875 19820.435546875 5897.69482421875
vn 0 0 1
v 3136.1142578125 19995.484375 5032.37255859375
vn 0 1 0
v 3136.1142578125 19995.484375 5042.37255859375
vn 0 1 0
v 2956.1142578125 19995.484375 5042.37255859375
vn 0 1 0
v 2956.1142578125 19995.484375 5032.37255859375
vn 0 1 0
v 2956.1142578125 19995.484375 5032.37255859375
vn -1 0 0
v 2956.1142578125 19995.484375 5042.37255859375
vn -1 0 0
v 2956.1142578125 19865.484375 5042.37255859375
vn -1 0 0
v 2956.1142578125 19865.484375 5032.37255859375
vn -1 0 0
v 2956.1142578125 19865.484375 5032.37255859375
vn 0 -1 0
v 2956.1142578125 19865.484375 5042.37255859375
vn 0 -1 0
v 3136.1142578125 19865.484375 5042.37255859375
vn 0 -1 0
v 3136.1142578125 19865.484375 5032.37255859375
vn 0 -1 0
v 3136.1142578125 19865.484375 5032.37255859375
vn 1 0 0
v 3136.1142578125 19865.484375 5042.37255859375
vn 1 0 0
v 3136.1142578125 19995.484375 5042.37255859375
vn 1 0 0
v 3136.1142578125 19995.484375 5032.37255859375
vn 1 0 0
v 3136.1142578125 19995.484375 5032.37255859375
vn 0 0 -1
v 2956.1142578125 19995.484375 5032.37255859375
vn 0 0 -1
v 2956.1142578125 19865.484375 5032.37255859375
vn 0 0 -1
v 3136.1142578125 19865.484375 5032.37255859375
vn 0 0 -1
v 2956.1142578125 19995.484375 5042.37255859375
vn 0 0 1
v 3136.1142578125 19995.484375 5042.37255859375
vn 0 0 1
v 3136.1142578125 19865.484375 5042.37255859375
vn 0 0 1
v 2956.1142578125 19865.484375 5042.37255859375
vn 0 0 1
v 3118.623046875 19880.484375 5042.37255859375
vn 0 0 -1
v 3118.623046875 19980.435546875 5042.37255859375
vn 0 0 -1
v 2978.623046875 19980.435546875 5042.37255859375
vn 0 0 -1
v 2978.623046875 19880.484375 5042.37255859375
vn 0 0 -1
v 2978.623046875 19880.484375 5042.37255859375
vn -1 0 0
v 2978.623046875 19980.435546875 5042.37255859375
vn -1 0 0
v 2978.623046875 19980.435546875 6285.24951171875
vn -1 0 0
v 2978.623046875 19880.484375 6285.24951171875
vn -1 0 0
v 2978.623046875 19880.484375 6285.24951171875
vn 0.70710676908493 0 0.70710676908493
v 2978.623046875 19980.435546875 6285.24951171875
vn 0.70710676908493 0 0.70710676908493
v 3049.333984375 19980.435546875 6214.53857421875
vn 0.70710676908493 0 0.70710676908493
v 3049.333984375 19880.484375 6214.53857421875
vn 0.70710676908493 0 0.70710676908493
v 3049.333984375 19880.484375 6214.53857421875
vn -0.70710676908493 0 0.70710676908493
v 3049.333984375 19980.435546875 6214.53857421875
vn -0.70710676908493 0 0.70710676908493
v 3118.623046875 19980.435546875 6283.82763671875
vn -0.70710676908493 0 0.70710676908493
v 3118.623046875 19880.484375 6283.82763671875
vn -0.70710676908493 0 0.70710676908493
v 3118.623046875 19880.484375 6283.82763671875
vn 1 0 0
v 3118.623046875 19980.435546875 6283.82763671875
vn 1 0 0
v 3118.623046875 19980.435546875 5042.37255859375
vn 1 0 0
v 3118.623046875 19880.484375 5042.37255859375
vn 1 0 0
v 3118.623046875 19880.484375 5042.37255859375
vn 0 -1 0
v 2978.623046875 19880.484375 5042.37255859375
vn 0 -1 0
v 2978.623046875 19880.484375 6285.24951171875
vn 0 -1 0
v 3049.333984375 19880.484375 6214.53857421875
vn 0 -1 0
v 3118.623046875 19880.484375 6283.82763671875
vn 0 -1 0
v 2978.623046875 19980.435546875 5042.37255859375
vn 0 1 0
v 3118.623046875 19980.435546875 5042.37255859375
vn 0 1 0
v 3118.623046875 19980.435546875 6283.82763671875
vn 0 1 0
v 3049.333984375 19980.435546875 6214.53857421875
vn 0 1 0
v 2978.623046875 19980.435546875 6285.24951171875
vn 0 1 0
v 2985.6943359375 19808.470703125 6292.32080078125
vn 0.70710676908493 0 0.70710676908493
v 2985.6943359375 20058.470703125 6292.32080078125
vn 0.70710676908493 0 0.70710676908493
v 3049.333984375 20058.470703125 6228.68115234375
vn 0.70710676908493 0 0.70710676908493
v 3049.333984375 19808.470703125 6228.68115234375
vn 0.70710676908493 0 0.70710676908493
v 3049.333984375 19808.470703125 6228.68115234375
vn -0.70710676908493 0 0.70710676908493
v 3049.333984375 20058.470703125 6228.68115234375
vn -0.70710676908493 0 0.70710676908493
v 3112.9736328125 20058.470703125 6292.32080078125
vn -0.70710676908493 0 0.70710676908493
v 3112.9736328125 19808.470703125 6292.32080078125
vn -0.70710676908493 0 0.70710676908493
v 3112.9736328125 19808.470703125 6292.32080078125
vn 0.70710676908493 0 0.70710676908493
v 3112.9736328125 20058.470703125 6292.32080078125
vn 0.70710676908493 0 0.70710676908493
v 3120.044921875 20058.470703125 6285.24951171875
vn 0.70710676908493 0 0.70710676908493
v 3120.044921875 19808.470703125 6285.24951171875
vn 0.70710676908493 0 0.70710676908493
v 3120.044921875 19808.470703125 6285.24951171875
vn 0.70710676908493 0 -0.70710676908493
v 3120.044921875 20058.470703125 6285.24951171875
vn 0.70710676908493 0 -0.70710676908493
v 3049.333984375 20058.470703125 6214.53857421875
vn 0.70710676908493 0 -0.70710676908493
v 3049.333984375 19808.470703125 6214.53857421875
vn 0.70710676908493 0 -0.70710676908493
v 3049.333984375 19808.470703125 6214.53857421875
vn -0.70710676908493 0 -0.70710676908493
v 3049.333984375 20058.470703125 6214.53857421875
vn -0.70710676908493 0 -0.70710676908493
v 2978.623046875 20058.470703125 6285.24951171875
vn -0.70710676908493 0 -0.70710676908493
v 2978.623046875 19808.470703125 6285.24951171875
vn -0.70710676908493 0 -0.70710676908493
v 2978.623046875 19808.470703125 6285.24951171875
vn -0.70710676908493 0 0.70710676908493
v 2978.623046875 20058.470703125 6285.24951171875
vn -0.70710676908493 0 0.70710676908493
v 2985.6943359375 20058.470703125 6292.32080078125
vn -0.70710676908493 0 0.70710676908493
v 2985.6943359375 19808.470703125 6292.32080078125
vn -0.70710676908493 0 0.70710676908493
v 2985.6943359375 19808.470703125 6292.32080078125
vn 0 -1 0
v 3049.333984375 19808.470703125 6228.68115234375
vn 0 -1 0
v 3112.9736328125 19808.470703125 6292.32080078125
vn 0 -1 0
v 3120.044921875 19808.470703125 6285.24951171875
vn 0 -1 0
v 3049.333984375 19808.470703125 6214.53857421875
vn 0 -1 0
v 2978.623046875 19808.470703125 6285.24951171875
vn 0 -1 0
v 3049.333984375 20058.470703125 6228.68115234375
vn 0 1 0
v 2985.6943359375 20058.470703125 6292.32080078125
vn 0 1 0
v 2978.623046875 20058.470703125 6285.24951171875
vn 0 1 0
v 3049.333984375 20058.470703125 6214.53857421875
vn 0 1 0
v 3120.044921875 20058.470703125 6285.24951171875
vn 0 1 0
v 3112.9736328125 20058.470703125 6292.32080078125
vn 0 1 0
f 113//113 109//109 114//114
f 113//113 112//112 109//109
f 109//109 112//112 110//110
f 112//112 111//111 110//110
f 105//105 104//104 106//106
f 103//103 108//108 104//104
f 108//108 107//107 104//104
f 104//104 107//107 106//106
f 101//101 99//99 102//102
f 101//101 100//100 99//99
f 97//97 95//95 98//98
f 97//97 96//96 95//95
f 93//93 91//91 94//94
f 93//93 92//92 91//91
f 89//89 87//87 90//90
f 89//89 88//88 87//87
f 85//85 83//83 86//86
f 85//85 84//84 83//83
f 81//81 79//79 82//82
f 81//81 80//80 79//79
f 76//76 75//75 77//77
f 77//77 75//75 78//78
f 75//75 74//74 78//78
f 71//71 70//70 72//72
f 72//72 70//70 73//73
f 70//70 69//69 73//73
f 67//67 65//65 68//68
f 67//67 66//66 65//65
f 63//63 61//61 64//64
f 63//63 62//62 61//61
f 59//59 57//57 60//60
f 59//59 58//58 57//57
f 55//55 53//53 56//56
f 55//55 54//54 53//53
f 51//51 49//49 52//52
f 51//51 50//50 49//49
f 47//47 45//45 48//48
f 47//47 46//46 45//45
f 43//43 41//41 44//44
f 43//43 42//42 41//41
f 39//39 37//37 40//40
f 39//39 38//38 37//37
f 35//35 33//33 36//36
f 35//35 34//34 33//33
f 31//31 29//29 32//32
f 31//31 30//30 29//29
f 27//27 25//25 28//28
f 27//27 26//26 25//25
f 23//23 21//21 24//24
f 23//23 22//22 21//21
f 19//19 17//17 20//20
f 19//19 18//18 17//17
f 15//15 13//13 16//16
f 15//15 14//14 13//13
f 11//11 9//9 12//12
f 11//11 10//10 9//9
f 7//7 5//5 8//8
f 7//7 6//6 5//5
f 3//3 1//1 4//4
f 3//3 2//2 1//1
