v 367.544921875 35810.2890625 2722.17333984375
vn 0.544639050960541 0 -0.838670551776886
v -3481.53515625 35810.2890625 222.55078125
vn 0.544639050960541 0 -0.838670551776886
v -3481.53515625 35510.2890625 222.55078125
vn 0.544639050960541 0 -0.838670551776886
v 367.544921875 35510.2890625 2722.17333984375
vn 0.544639050960541 0 -0.838670551776886
v 367.544921875 35510.2890625 2722.17333984375
vn 0 -1 0
v -3481.53515625 35510.2890625 222.55078125
vn 0 -1 0
v -3644.9267578125 35510.2890625 474.15185546875
vn 0 -1 0
v 367.544921875 35510.2890625 3079.88232421875
vn 0 -1 0
v 367.544921875 35510.2890625 3079.88232421875
vn -0.544639050960541 0 0.838670551776886
v -3644.9267578125 35510.2890625 474.15185546875
vn -0.544639050960541 0 0.838670551776886
v -3644.9267578125 35810.2890625 474.15185546875
vn -0.544639050960541 0 0.838670551776886
v 367.544921875 35810.2890625 3079.88232421875
vn -0.544639050960541 0 0.838670551776886
v 367.544921875 35810.2890625 3079.88232421875
vn 0 1 0
v -3644.9267578125 35810.2890625 474.15185546875
vn 0 1 0
v -3481.53515625 35810.2890625 222.55078125
vn 0 1 0
v 367.544921875 35810.2890625 2722.17333984375
vn 0 1 0
v -3481.53515625 35510.2890625 222.55078125
vn -0.838670551776886 0 -0.544639050960541
v -3481.53515625 35810.2890625 222.55078125
vn -0.838670551776886 0 -0.544639050960541
v -3644.9267578125 35810.2890625 474.15185546875
vn -0.838670551776886 0 -0.544639050960541
v -3644.9267578125 35510.2890625 474.15185546875
vn -0.838670551776886 0 -0.544639050960541
v 367.544921875 35510.2890625 3079.88232421875
vn 1 0 -1.38777878078145E-15
v 367.544921875 35810.2890625 3079.88232421875
vn 1 0 -1.38777878078145E-15
v 367.544921875 35810.2890625 2722.17333984375
vn 1 0 -1.38777878078145E-15
v 367.544921875 35510.2890625 2722.17333984375
vn 1 0 -1.38777878078145E-15
f 23//23 21//21 24//24
f 23//23 22//22 21//21
f 19//19 17//17 20//20
f 19//19 18//18 17//17
f 15//15 13//13 16//16
f 15//15 14//14 13//13
f 11//11 9//9 12//12
f 11//11 10//10 9//9
f 7//7 5//5 8//8
f 7//7 6//6 5//5
f 3//3 1//1 4//4
f 3//3 2//2 1//1
