v -2442.45458984375 36290.2890625 -2100.99755859375
vn 0 1 0
v -2442.45458984375 36290.2890625 -1078.896484375
vn 0 1 0
v -2742.45458984375 36290.2890625 -1078.896484375
vn 0 1 0
v -2742.45458984375 36290.2890625 -2100.99755859375
vn 0 1 0
v -2742.45458984375 36290.2890625 -2100.99755859375
vn -1 0 0
v -2742.45458984375 36290.2890625 -1078.896484375
vn -1 0 0
v -2742.45458984375 36110.2890625 -1078.896484375
vn -1 0 0
v -2742.45458984375 36110.2890625 -2100.99755859375
vn -1 0 0
v -2742.45458984375 36110.2890625 -2100.99755859375
vn 0 -1 0
v -2742.45458984375 36110.2890625 -1078.896484375
vn 0 -1 0
v -2442.45458984375 36110.2890625 -1078.896484375
vn 0 -1 0
v -2442.45458984375 36110.2890625 -2100.99755859375
vn 0 -1 0
v -2442.45458984375 36110.2890625 -2100.99755859375
vn 1 0 0
v -2442.45458984375 36110.2890625 -1078.896484375
vn 1 0 0
v -2442.45458984375 36290.2890625 -1078.896484375
vn 1 0 0
v -2442.45458984375 36290.2890625 -2100.99755859375
vn 1 0 0
v -2442.45458984375 36290.2890625 -2100.99755859375
vn 0 0 -1
v -2742.45458984375 36290.2890625 -2100.99755859375
vn 0 0 -1
v -2742.45458984375 36110.2890625 -2100.99755859375
vn 0 0 -1
v -2442.45458984375 36110.2890625 -2100.99755859375
vn 0 0 -1
v -2742.45458984375 36290.2890625 -1078.896484375
vn 0 0 1
v -2442.45458984375 36290.2890625 -1078.896484375
vn 0 0 1
v -2442.45458984375 36110.2890625 -1078.896484375
vn 0 0 1
v -2742.45458984375 36110.2890625 -1078.896484375
vn 0 0 1
f 23//23 21//21 24//24
f 23//23 22//22 21//21
f 19//19 17//17 20//20
f 19//19 18//18 17//17
f 15//15 13//13 16//16
f 15//15 14//14 13//13
f 11//11 9//9 12//12
f 11//11 10//10 9//9
f 7//7 5//5 8//8
f 7//7 6//6 5//5
f 3//3 1//1 4//4
f 3//3 2//2 1//1
