v -2997.6044921875 -35437.78515625 3381.05126953125
vn 0.962246596813202 0 -0.272179216146469
v -5094.51245117188 -35437.78515625 -4032.2353515625
vn 0.962246596813202 0 -0.272179216146469
v -5094.51245117188 -35737.78515625 -4032.2353515625
vn 0.962246596813202 0 -0.272179216146469
v -2997.6044921875 -35737.78515625 3381.05126953125
vn 0.962246596813202 0 -0.272179216146469
v -2997.6044921875 -35737.78515625 3381.05126953125
vn 0 -1 0
v -5094.51245117188 -35737.78515625 -4032.2353515625
vn 0 -1 0
v -5383.1865234375 -35737.78515625 -3950.58154296875
vn 0 -1 0
v -3286.2783203125 -35737.78515625 3462.70458984375
vn 0 -1 0
v -3286.2783203125 -35737.78515625 3462.70458984375
vn -0.962246596813202 0 0.272179216146469
v -5383.1865234375 -35737.78515625 -3950.58154296875
vn -0.962246596813202 0 0.272179216146469
v -5383.1865234375 -35437.78515625 -3950.58154296875
vn -0.962246596813202 0 0.272179216146469
v -3286.2783203125 -35437.78515625 3462.70458984375
vn -0.962246596813202 0 0.272179216146469
v -3286.2783203125 -35437.78515625 3462.70458984375
vn 0 1 0
v -5383.1865234375 -35437.78515625 -3950.58154296875
vn 0 1 0
v -5094.51245117188 -35437.78515625 -4032.2353515625
vn 0 1 0
v -2997.6044921875 -35437.78515625 3381.05126953125
vn 0 1 0
v -2997.6044921875 -35437.78515625 3381.05126953125
vn 0.272179216146469 0 0.962246596813202
v -2997.6044921875 -35737.78515625 3381.05126953125
vn 0.272179216146469 0 0.962246596813202
v -3286.2783203125 -35737.78515625 3462.70458984375
vn 0.272179216146469 0 0.962246596813202
v -3286.2783203125 -35437.78515625 3462.70458984375
vn 0.272179216146469 0 0.962246596813202
v -5094.51245117188 -35737.78515625 -4032.2353515625
vn -0.272179216146469 0 -0.962246596813202
v -5094.51245117188 -35437.78515625 -4032.2353515625
vn -0.272179216146469 0 -0.962246596813202
v -5383.1865234375 -35437.78515625 -3950.58154296875
vn -0.272179216146469 0 -0.962246596813202
v -5383.1865234375 -35737.78515625 -3950.58154296875
vn -0.272179216146469 0 -0.962246596813202
f 23//23 21//21 24//24
f 23//23 22//22 21//21
f 19//19 17//17 20//20
f 19//19 18//18 17//17
f 15//15 13//13 16//16
f 15//15 14//14 13//13
f 11//11 9//9 12//12
f 11//11 10//10 9//9
f 7//7 5//5 8//8
f 7//7 6//6 5//5
f 3//3 1//1 4//4
f 3//3 2//2 1//1
