v 2717.544921875 36110.2890625 817.55615234375
vn -0.383674621582031 0 -0.923468351364136
v -1842.45458984375 36110.2890625 2712.10595703125
vn -0.383674621582031 0 -0.923468351364136
v -1842.45458984375 35810.2890625 2712.10595703125
vn -0.383674621582031 0 -0.923468351364136
v 2717.544921875 35810.2890625 817.55615234375
vn -0.383674621582031 0 -0.923468351364136
v 2717.544921875 35810.2890625 817.55615234375
vn 0 -1 0
v -1842.45458984375 35810.2890625 2712.10595703125
vn 0 -1 0
v -1842.45458984375 35810.2890625 3036.96826171875
vn 0 -1 0
v 2917.544921875 35810.2890625 1059.32470703125
vn 0 -1 0
v 2917.544921875 35810.2890625 817.55615234375
vn 0 -1 0
v 2917.544921875 35810.2890625 1059.32470703125
vn 0.383674621582031 0 0.923468351364136
v -1842.45458984375 35810.2890625 3036.96826171875
vn 0.383674621582031 0 0.923468351364136
v -1842.45458984375 36110.2890625 3036.96826171875
vn 0.383674621582031 0 0.923468351364136
v 2917.544921875 36110.2890625 1059.32470703125
vn 0.383674621582031 0 0.923468351364136
v 2917.544921875 36110.2890625 817.55615234375
vn 0 1 0
v 2917.544921875 36110.2890625 1059.32470703125
vn 0 1 0
v -1842.45458984375 36110.2890625 3036.96826171875
vn 0 1 0
v -1842.45458984375 36110.2890625 2712.10595703125
vn 0 1 0
v 2717.544921875 36110.2890625 817.55615234375
vn 0 1 0
v 2917.544921875 36110.2890625 1059.32470703125
vn 1 0 -1.27675647831893E-15
v 2917.544921875 36110.2890625 817.55615234375
vn 1 0 -1.27675647831893E-15
v 2917.544921875 35810.2890625 817.55615234375
vn 1 0 -1.27675647831893E-15
v 2917.544921875 35810.2890625 1059.32470703125
vn 1 0 -1.27675647831893E-15
v -1842.45458984375 36110.2890625 3036.96826171875
vn -1 0 1.27675647831893E-15
v -1842.45458984375 35810.2890625 3036.96826171875
vn -1 0 1.27675647831893E-15
v -1842.45458984375 35810.2890625 2712.10595703125
vn -1 0 1.27675647831893E-15
v -1842.45458984375 36110.2890625 2712.10595703125
vn -1 0 1.27675647831893E-15
v 2917.544921875 35810.2890625 817.55615234375
vn 0 0 -1
v 2917.544921875 36110.2890625 817.55615234375
vn 0 0 -1
v 2717.544921875 36110.2890625 817.55615234375
vn 0 0 -1
v 2717.544921875 35810.2890625 817.55615234375
vn 0 0 -1
f 29//29 27//27 30//30
f 29//29 28//28 27//27
f 25//25 23//23 26//26
f 25//25 24//24 23//23
f 21//21 19//19 22//22
f 21//21 20//20 19//19
f 15//15 14//14 16//16
f 14//14 18//18 16//16
f 18//18 17//17 16//16
f 12//12 10//10 13//13
f 12//12 11//11 10//10
f 7//7 9//9 8//8
f 7//7 6//6 9//9
f 6//6 5//5 9//9
f 3//3 1//1 4//4
f 3//3 2//2 1//1
