v 2905.369140625 46763.40625 3894.34619140625
vn 0 0 1
v 3356.4677734375 46763.40625 3894.34619140625
vn 0 0 1
v 3356.4677734375 46413.40625 3894.34619140625
vn 0 0 1
v 2905.369140625 46413.40625 3894.34619140625
vn 0 0 1
v 3201.1591796875 46413.40625 79.34619140625
vn 0 -1 0
v 3172.1396484375 46413.40625 79.34619140625
vn 0 -1 0
v 2905.369140625 46413.40625 3894.34619140625
vn 0 -1 0
v 3356.4677734375 46413.40625 3894.34619140625
vn 0 -1 0
v 3624.287109375 46413.40625 64.34619140625
vn 0 -1 0
v 3624.287109375 46413.40625 -335.65380859375
vn 0 -1 0
v 3201.1591796875 46413.40625 -335.65380859375
vn 0 -1 0
v 3356.4677734375 46413.40625 3894.34619140625
vn 0.997564077377319 0 0.0697564706206322
v 3356.4677734375 46763.40625 3894.34619140625
vn 0.997564077377319 0 0.0697564706206322
v 3624.287109375 46763.40625 64.34619140625
vn 0.997564077377319 0 0.0697564706206322
v 3624.287109375 46413.40625 64.34619140625
vn 0.997564077377319 0 0.0697564706206322
v 3624.287109375 46763.40625 64.34619140625
vn 0 1 0
v 3356.4677734375 46763.40625 3894.34619140625
vn 0 1 0
v 2905.369140625 46763.40625 3894.34619140625
vn 0 1 0
v 3172.1396484375 46763.40625 79.34619140625
vn 0 1 0
v 3201.1591796875 46763.40625 79.34619140625
vn 0 1 0
v 3201.1591796875 46763.40625 -335.65380859375
vn 0 1 0
v 3624.287109375 46763.40625 -335.65380859375
vn 0 1 0
v 2905.369140625 46763.40625 3894.34619140625
vn -0.997564077377319 0 -0.0697564706206322
v 2905.369140625 46413.40625 3894.34619140625
vn -0.997564077377319 0 -0.0697564706206322
v 3172.1396484375 46413.40625 79.34619140625
vn -0.997564077377319 0 -0.0697564706206322
v 3172.1396484375 46763.40625 79.34619140625
vn -0.997564077377319 0 -0.0697564706206322
v 3201.1591796875 46413.40625 -335.65380859375
vn 0 0 -1
v 3624.287109375 46413.40625 -335.65380859375
vn 0 0 -1
v 3624.287109375 46763.40625 -335.65380859375
vn 0 0 -1
v 3201.1591796875 46763.40625 -335.65380859375
vn 0 0 -1
v 3624.287109375 46413.40625 -335.65380859375
vn 1 0 -4.83169065399066E-15
v 3624.287109375 46413.40625 64.34619140625
vn 1 0 -4.83169065399066E-15
v 3624.287109375 46763.40625 64.34619140625
vn 1 0 -4.83169065399066E-15
v 3624.287109375 46763.40625 -335.65380859375
vn 1 0 -4.83169065399066E-15
v 3201.1591796875 46413.40625 79.34619140625
vn 0 0 -1
v 3201.1591796875 46763.40625 79.34619140625
vn 0 0 -1
v 3172.1396484375 46763.40625 79.34619140625
vn 0 0 -1
v 3172.1396484375 46413.40625 79.34619140625
vn 0 0 -1
v 3201.1591796875 46413.40625 79.34619140625
vn -1 1.13686839415682E-14 9.58804619765252E-15
v 3201.1591796875 46413.40625 -335.65380859375
vn -1 1.13686839415682E-14 9.58804619765252E-15
v 3201.1591796875 46763.40625 -335.65380859375
vn -1 1.13686839415682E-14 9.58804619765252E-15
v 3201.1591796875 46763.40625 79.34619140625
vn -1 1.13686839415682E-14 9.58804619765252E-15
f 41//41 39//39 42//42
f 41//41 40//40 39//39
f 37//37 35//35 38//38
f 37//37 36//36 35//35
f 33//33 31//31 34//34
f 33//33 32//32 31//31
f 29//29 27//27 30//30
f 29//29 28//28 27//27
f 25//25 23//23 26//26
f 25//25 24//24 23//23
f 17//17 20//20 18//18
f 20//20 19//19 18//18
f 17//17 16//16 20//20
f 16//16 22//22 20//20
f 22//22 21//21 20//20
f 14//14 12//12 15//15
f 14//14 13//13 12//12
f 7//7 6//6 8//8
f 6//6 5//5 8//8
f 5//5 9//9 8//8
f 5//5 11//11 9//9
f 11//11 10//10 9//9
f 3//3 1//1 4//4
f 3//3 2//2 1//1
