v 4669.501953125 -35196.1796875 3462.89794921875
vn 0 0 1
v -3595.7236328125 -35228.19140625 3462.89794921875
vn 0 0 1
v -3596.3046875 -35078.193359375 3462.89794921875
vn 0 0 1
v 4668.9208984375 -35046.1796875 3462.89794921875
vn 0 0 1
v 4668.9208984375 -35046.1796875 3462.89794921875
vn -0.00387322879396379 0.999992489814758 0
v -3596.3046875 -35078.193359375 3462.89794921875
vn -0.00387322879396379 0.999992489814758 0
v -3596.3046875 -35078.193359375 3162.89794921875
vn -0.00387322879396379 0.999992489814758 0
v 4668.9208984375 -35046.1796875 3162.89794921875
vn -0.00387322879396379 0.999992489814758 0
v 4668.9208984375 -35046.1796875 3162.89794921875
vn 0 0 -1
v -3596.3046875 -35078.193359375 3162.89794921875
vn 0 0 -1
v -3595.7236328125 -35228.19140625 3162.89794921875
vn 0 0 -1
v 4669.501953125 -35196.1796875 3162.89794921875
vn 0 0 -1
v 4669.501953125 -35196.1796875 3162.89794921875
vn 0.00387322879396379 -0.999992489814758 0
v -3595.7236328125 -35228.19140625 3162.89794921875
vn 0.00387322879396379 -0.999992489814758 0
v -3595.7236328125 -35228.19140625 3462.89794921875
vn 0.00387322879396379 -0.999992489814758 0
v 4669.501953125 -35196.1796875 3462.89794921875
vn 0.00387322879396379 -0.999992489814758 0
v 4669.501953125 -35196.1796875 3462.89794921875
vn 0.999992489814758 0.00387322879396379 0
v 4668.9208984375 -35046.1796875 3462.89794921875
vn 0.999992489814758 0.00387322879396379 0
v 4668.9208984375 -35046.1796875 3162.89794921875
vn 0.999992489814758 0.00387322879396379 0
v 4669.501953125 -35196.1796875 3162.89794921875
vn 0.999992489814758 0.00387322879396379 0
v -3596.3046875 -35078.193359375 3462.89794921875
vn -0.999992489814758 -0.00387322879396379 0
v -3595.7236328125 -35228.19140625 3462.89794921875
vn -0.999992489814758 -0.00387322879396379 0
v -3595.7236328125 -35228.19140625 3162.89794921875
vn -0.999992489814758 -0.00387322879396379 0
v -3596.3046875 -35078.193359375 3162.89794921875
vn -0.999992489814758 -0.00387322879396379 0
f 23//23 21//21 24//24
f 23//23 22//22 21//21
f 19//19 17//17 20//20
f 19//19 18//18 17//17
f 15//15 13//13 16//16
f 15//15 14//14 13//13
f 11//11 9//9 12//12
f 11//11 10//10 9//9
f 7//7 5//5 8//8
f 7//7 6//6 5//5
f 3//3 1//1 4//4
f 3//3 2//2 1//1
