v -1924.0751953125 -4099.56439208984 5552.69482421875
vn 0 1 0
v -1924.0751953125 -4099.56439208984 5897.69482421875
vn 0 1 0
v -1939.0751953125 -4099.56439208984 5897.69482421875
vn 0 1 0
v -1939.0751953125 -4099.56439208984 5552.69482421875
vn 0 1 0
v -1939.0751953125 -4099.56439208984 5552.69482421875
vn -1 0 0
v -1939.0751953125 -4099.56439208984 5897.69482421875
vn -1 0 0
v -1939.0751953125 -4319.56439208984 5897.69482421875
vn -1 0 0
v -1939.0751953125 -4319.56439208984 5552.69482421875
vn -1 0 0
v -1939.0751953125 -4319.56439208984 5552.69482421875
vn 0 -1 0
v -1939.0751953125 -4319.56439208984 5897.69482421875
vn 0 -1 0
v -1924.0751953125 -4319.56439208984 5897.69482421875
vn 0 -1 0
v -1924.0751953125 -4319.56439208984 5552.69482421875
vn 0 -1 0
v -1924.0751953125 -4319.56439208984 5552.69482421875
vn 1 0 0
v -1924.0751953125 -4319.56439208984 5897.69482421875
vn 1 0 0
v -1924.0751953125 -4099.56439208984 5897.69482421875
vn 1 0 0
v -1924.0751953125 -4099.56439208984 5552.69482421875
vn 1 0 0
v -1924.0751953125 -4099.56439208984 5552.69482421875
vn 0 0 -1
v -1939.0751953125 -4099.56439208984 5552.69482421875
vn 0 0 -1
v -1939.0751953125 -4319.56439208984 5552.69482421875
vn 0 0 -1
v -1924.0751953125 -4319.56439208984 5552.69482421875
vn 0 0 -1
v -1939.0751953125 -4099.56439208984 5897.69482421875
vn 0 0 1
v -1924.0751953125 -4099.56439208984 5897.69482421875
vn 0 0 1
v -1924.0751953125 -4319.56439208984 5897.69482421875
vn 0 0 1
v -1939.0751953125 -4319.56439208984 5897.69482421875
vn 0 0 1
v -1916.56640625 -4274.51513671875 5032.37255859375
vn 1 0 0
v -1916.56640625 -4274.51513671875 5042.37255859375
vn 1 0 0
v -1916.56640625 -4144.51513671875 5042.37255859375
vn 1 0 0
v -1916.56640625 -4144.51513671875 5032.37255859375
vn 1 0 0
v -1916.56640625 -4144.51513671875 5032.37255859375
vn 0 1 0
v -1916.56640625 -4144.51513671875 5042.37255859375
vn 0 1 0
v -2096.56640625 -4144.51513671875 5042.37255859375
vn 0 1 0
v -2096.56640625 -4144.51513671875 5032.37255859375
vn 0 1 0
v -2096.56640625 -4144.51513671875 5032.37255859375
vn -1 0 0
v -2096.56640625 -4144.51513671875 5042.37255859375
vn -1 0 0
v -2096.56640625 -4274.51513671875 5042.37255859375
vn -1 0 0
v -2096.56640625 -4274.51513671875 5032.37255859375
vn -1 0 0
v -2096.56640625 -4274.51513671875 5032.37255859375
vn 0 -1 0
v -2096.56640625 -4274.51513671875 5042.37255859375
vn 0 -1 0
v -1916.56640625 -4274.51513671875 5042.37255859375
vn 0 -1 0
v -1916.56640625 -4274.51513671875 5032.37255859375
vn 0 -1 0
v -1916.56640625 -4274.51513671875 5032.37255859375
vn 0 0 -1
v -1916.56640625 -4144.51513671875 5032.37255859375
vn 0 0 -1
v -2096.56640625 -4144.51513671875 5032.37255859375
vn 0 0 -1
v -2096.56640625 -4274.51513671875 5032.37255859375
vn 0 0 -1
v -1916.56640625 -4144.51513671875 5042.37255859375
vn 0 0 1
v -1916.56640625 -4274.51513671875 5042.37255859375
vn 0 0 1
v -2096.56640625 -4274.51513671875 5042.37255859375
vn 0 0 1
v -2096.56640625 -4144.51513671875 5042.37255859375
vn 0 0 1
v -1939.0751953125 -4259.51513671875 6285.24951171875
vn 1 0 0
v -1939.0751953125 -4159.56439208984 6285.24951171875
vn 1 0 0
v -1939.0751953125 -4159.56439208984 5042.37255859375
vn 1 0 0
v -1939.0751953125 -4259.51513671875 5042.37255859375
vn 1 0 0
v -1939.0751953125 -4259.51513671875 5042.37255859375
vn 0 0 -1
v -1939.0751953125 -4159.56439208984 5042.37255859375
vn 0 0 -1
v -2079.0751953125 -4159.56439208984 5042.37255859375
vn 0 0 -1
v -2079.0751953125 -4259.51513671875 5042.37255859375
vn 0 0 -1
v -2079.0751953125 -4259.51513671875 5042.37255859375
vn -1 0 0
v -2079.0751953125 -4159.56439208984 5042.37255859375
vn -1 0 0
v -2079.0751953125 -4159.56439208984 6283.82763671875
vn -1 0 0
v -2079.0751953125 -4259.51513671875 6283.82763671875
vn -1 0 0
v -2079.0751953125 -4259.51513671875 6283.82763671875
vn 0.70710676908493 0 0.70710676908493
v -2079.0751953125 -4159.56439208984 6283.82763671875
vn 0.70710676908493 0 0.70710676908493
v -2009.78564453125 -4159.56439208984 6214.53857421875
vn 0.70710676908493 0 0.70710676908493
v -2009.78564453125 -4259.51513671875 6214.53857421875
vn 0.70710676908493 0 0.70710676908493
v -2009.78564453125 -4259.51513671875 6214.53857421875
vn -0.70710676908493 0 0.70710676908493
v -2009.78564453125 -4159.56439208984 6214.53857421875
vn -0.70710676908493 0 0.70710676908493
v -1939.0751953125 -4159.56439208984 6285.24951171875
vn -0.70710676908493 0 0.70710676908493
v -1939.0751953125 -4259.51513671875 6285.24951171875
vn -0.70710676908493 0 0.70710676908493
v -1939.0751953125 -4259.51513671875 6285.24951171875
vn 0 -1 0
v -1939.0751953125 -4259.51513671875 5042.37255859375
vn 0 -1 0
v -2079.0751953125 -4259.51513671875 5042.37255859375
vn 0 -1 0
v -2079.0751953125 -4259.51513671875 6283.82763671875
vn 0 -1 0
v -2009.78564453125 -4259.51513671875 6214.53857421875
vn 0 -1 0
v -1939.0751953125 -4159.56439208984 5042.37255859375
vn 0 1 0
v -1939.0751953125 -4159.56439208984 6285.24951171875
vn 0 1 0
v -2009.78564453125 -4159.56439208984 6214.53857421875
vn 0 1 0
v -2079.0751953125 -4159.56439208984 6283.82763671875
vn 0 1 0
v -2079.0751953125 -4159.56439208984 5042.37255859375
vn 0 1 0
v -2073.42529296875 -4331.52960205078 6292.32080078125
vn 0.70710676908493 0 0.70710676908493
v -2073.42529296875 -4081.52966308594 6292.32080078125
vn 0.70710676908493 0 0.70710676908493
v -2009.78564453125 -4081.52966308594 6228.68115234375
vn 0.70710676908493 0 0.70710676908493
v -2009.78564453125 -4331.52960205078 6228.68115234375
vn 0.70710676908493 0 0.70710676908493
v -2009.78564453125 -4331.52960205078 6228.68115234375
vn -0.70710676908493 0 0.70710676908493
v -2009.78564453125 -4081.52966308594 6228.68115234375
vn -0.70710676908493 0 0.70710676908493
v -1946.146484375 -4081.52966308594 6292.32080078125
vn -0.70710676908493 0 0.70710676908493
v -1946.146484375 -4331.52960205078 6292.32080078125
vn -0.70710676908493 0 0.70710676908493
v -1946.146484375 -4331.52960205078 6292.32080078125
vn 0.70710676908493 0 0.70710676908493
v -1946.146484375 -4081.52966308594 6292.32080078125
vn 0.70710676908493 0 0.70710676908493
v -1939.0751953125 -4081.52966308594 6285.24951171875
vn 0.70710676908493 0 0.70710676908493
v -1939.0751953125 -4331.52960205078 6285.24951171875
vn 0.70710676908493 0 0.70710676908493
v -1939.0751953125 -4331.52960205078 6285.24951171875
vn 0.70710676908493 0 -0.70710676908493
v -1939.0751953125 -4081.52966308594 6285.24951171875
vn 0.70710676908493 0 -0.70710676908493
v -2009.78564453125 -4081.52966308594 6214.53857421875
vn 0.70710676908493 0 -0.70710676908493
v -2009.78564453125 -4331.52960205078 6214.53857421875
vn 0.70710676908493 0 -0.70710676908493
v -2009.78564453125 -4331.52960205078 6214.53857421875
vn -0.70710676908493 0 -0.70710676908493
v -2009.78564453125 -4081.52966308594 6214.53857421875
vn -0.70710676908493 0 -0.70710676908493
v -2080.49658203125 -4081.52966308594 6285.24951171875
vn -0.70710676908493 0 -0.70710676908493
v -2080.49658203125 -4331.52960205078 6285.24951171875
vn -0.70710676908493 0 -0.70710676908493
v -2080.49658203125 -4331.52960205078 6285.24951171875
vn -0.70710676908493 0 0.70710676908493
v -2080.49658203125 -4081.52966308594 6285.24951171875
vn -0.70710676908493 0 0.70710676908493
v -2073.42529296875 -4081.52966308594 6292.32080078125
vn -0.70710676908493 0 0.70710676908493
v -2073.42529296875 -4331.52960205078 6292.32080078125
vn -0.70710676908493 0 0.70710676908493
v -2073.42529296875 -4331.52960205078 6292.32080078125
vn 0 -1 0
v -2009.78564453125 -4331.52960205078 6228.68115234375
vn 0 -1 0
v -1946.146484375 -4331.52960205078 6292.32080078125
vn 0 -1 0
v -1939.0751953125 -4331.52960205078 6285.24951171875
vn 0 -1 0
v -2009.78564453125 -4331.52960205078 6214.53857421875
vn 0 -1 0
v -2080.49658203125 -4331.52960205078 6285.24951171875
vn 0 -1 0
v -2009.78564453125 -4081.52966308594 6228.68115234375
vn 0 1 0
v -2073.42529296875 -4081.52966308594 6292.32080078125
vn 0 1 0
v -2080.49658203125 -4081.52966308594 6285.24951171875
vn 0 1 0
v -2009.78564453125 -4081.52966308594 6214.53857421875
vn 0 1 0
v -1939.0751953125 -4081.52966308594 6285.24951171875
vn 0 1 0
v -1946.146484375 -4081.52966308594 6292.32080078125
vn 0 1 0
f 113//113 109//109 114//114
f 113//113 112//112 109//109
f 109//109 112//112 110//110
f 112//112 111//111 110//110
f 105//105 104//104 106//106
f 103//103 108//108 104//104
f 108//108 107//107 104//104
f 104//104 107//107 106//106
f 101//101 99//99 102//102
f 101//101 100//100 99//99
f 97//97 95//95 98//98
f 97//97 96//96 95//95
f 93//93 91//91 94//94
f 93//93 92//92 91//91
f 89//89 87//87 90//90
f 89//89 88//88 87//87
f 85//85 83//83 86//86
f 85//85 84//84 83//83
f 81//81 79//79 82//82
f 81//81 80//80 79//79
f 77//77 76//76 78//78
f 76//76 75//75 78//78
f 75//75 74//74 78//78
f 71//71 73//73 72//72
f 71//71 70//70 73//73
f 70//70 69//69 73//73
f 67//67 65//65 68//68
f 67//67 66//66 65//65
f 63//63 61//61 64//64
f 63//63 62//62 61//61
f 59//59 57//57 60//60
f 59//59 58//58 57//57
f 55//55 53//53 56//56
f 55//55 54//54 53//53
f 51//51 49//49 52//52
f 51//51 50//50 49//49
f 47//47 45//45 48//48
f 47//47 46//46 45//45
f 43//43 41//41 44//44
f 43//43 42//42 41//41
f 39//39 37//37 40//40
f 39//39 38//38 37//37
f 35//35 33//33 36//36
f 35//35 34//34 33//33
f 31//31 29//29 32//32
f 31//31 30//30 29//29
f 27//27 25//25 28//28
f 27//27 26//26 25//25
f 23//23 21//21 24//24
f 23//23 22//22 21//21
f 19//19 17//17 20//20
f 19//19 18//18 17//17
f 15//15 13//13 16//16
f 15//15 14//14 13//13
f 11//11 9//9 12//12
f 11//11 10//10 9//9
f 7//7 5//5 8//8
f 7//7 6//6 5//5
f 3//3 1//1 4//4
f 3//3 2//2 1//1
