v -2140.21240234375 -35134.71875 3065.46435546875
vn 0.754709601402283 0 0.65605902671814
v 3523.001953125 -35134.71875 -3449.3193359375
vn 0.754709601402283 0 0.65605902671814
v 3523.001953125 -35434.71875 -3449.3193359375
vn 0.754709601402283 0 0.65605902671814
v -2140.21240234375 -35434.71875 3065.46435546875
vn 0.754709601402283 0 0.65605902671814
v -2140.21240234375 -35434.71875 3065.46435546875
vn 0 -1 0
v 3523.001953125 -35434.71875 -3449.3193359375
vn 0 -1 0
v 3296.58984375 -35434.71875 -3646.13720703125
vn 0 -1 0
v -2366.62548828125 -35434.71875 2868.64599609375
vn 0 -1 0
v -2366.62548828125 -35434.71875 2868.64599609375
vn -0.754709601402283 0 -0.65605902671814
v 3296.58984375 -35434.71875 -3646.13720703125
vn -0.754709601402283 0 -0.65605902671814
v 3296.58984375 -35134.71875 -3646.13720703125
vn -0.754709601402283 0 -0.65605902671814
v -2366.62548828125 -35134.71875 2868.64599609375
vn -0.754709601402283 0 -0.65605902671814
v -2366.62548828125 -35134.71875 2868.64599609375
vn 0 1 0
v 3296.58984375 -35134.71875 -3646.13720703125
vn 0 1 0
v 3523.001953125 -35134.71875 -3449.3193359375
vn 0 1 0
v -2140.21240234375 -35134.71875 3065.46435546875
vn 0 1 0
v -2140.21240234375 -35134.71875 3065.46435546875
vn -0.65605902671814 0 0.754709601402283
v -2140.21240234375 -35434.71875 3065.46435546875
vn -0.65605902671814 0 0.754709601402283
v -2366.62548828125 -35434.71875 2868.64599609375
vn -0.65605902671814 0 0.754709601402283
v -2366.62548828125 -35134.71875 2868.64599609375
vn -0.65605902671814 0 0.754709601402283
v 3523.001953125 -35434.71875 -3449.3193359375
vn 0.65605902671814 0 -0.754709601402283
v 3523.001953125 -35134.71875 -3449.3193359375
vn 0.65605902671814 0 -0.754709601402283
v 3296.58984375 -35134.71875 -3646.13720703125
vn 0.65605902671814 0 -0.754709601402283
v 3296.58984375 -35434.71875 -3646.13720703125
vn 0.65605902671814 0 -0.754709601402283
f 23//23 21//21 24//24
f 23//23 22//22 21//21
f 19//19 17//17 20//20
f 19//19 18//18 17//17
f 15//15 13//13 16//16
f 15//15 14//14 13//13
f 11//11 9//9 12//12
f 11//11 10//10 9//9
f 7//7 5//5 8//8
f 7//7 6//6 5//5
f 3//3 1//1 4//4
f 3//3 2//2 1//1
