v -2519.33349609375 46413.40625 491.72216796875
vn 0 0 1
v -3318.509765625 46413.40625 491.72216796875
vn 0 0 1
v -3318.509765625 46551.7421875 491.72216796875
vn 0 0 1
v -3314.1015625 46608.0390625 491.72216796875
vn 0 0 1
v -3300.9833984375 46662.96484375 491.72216796875
vn 0 0 1
v -3279.4755859375 46715.17578125 491.72216796875
vn 0 0 1
v -3250.10302734375 46763.40625 491.72216796875
vn 0 0 1
v -2519.33349609375 46763.40625 491.72216796875
vn 0 0 1
v -3318.509765625 46413.40625 191.72265625
vn 0 0 -1
v -2541.40283203125 46413.40625 191.72265625
vn 0 0 -1
v -2541.40283203125 46763.40625 191.72265625
vn 0 0 -1
v -3250.10302734375 46763.40625 191.72265625
vn 0 0 -1
v -3279.4755859375 46715.17578125 191.72265625
vn 0 0 -1
v -3300.9833984375 46662.96484375 191.72265625
vn 0 0 -1
v -3314.1015625 46608.0390625 191.72265625
vn 0 0 -1
v -3318.509765625 46551.7421875 191.72265625
vn 0 0 -1
v -2541.40283203125 46413.40625 191.72265625
vn 0 -1 0
v -3318.509765625 46413.40625 191.72265625
vn 0 -1 0
v -3318.509765625 46413.40625 491.72216796875
vn 0 -1 0
v -2519.33349609375 46413.40625 491.72216796875
vn 0 -1 0
v -3250.10302734375 46763.40625 191.72265625
vn 0 1 0
v -2541.40283203125 46763.40625 191.72265625
vn 0 1 0
v -2519.33349609375 46763.40625 491.72216796875
vn 0 1 0
v -3250.10302734375 46763.40625 491.72216796875
vn 0 1 0
v -3318.509765625 46413.40625 191.72265625
vn -1 0 0
v -3318.509765625 46551.7421875 191.72265625
vn -1 0 0
v -3318.509765625 46551.7421875 491.72216796875
vn -1 0 0
v -3318.509765625 46413.40625 491.72216796875
vn -1 0 0
v -3250.10302734375 46763.40625 491.72216796875
vn -0.85406893491745 0.520159840583801 0
v -3279.4755859375 46715.17578125 491.72216796875
vn -0.85406893491745 0.520159840583801 0
v -3279.4755859375 46715.17578125 191.72265625
vn -0.85406893491745 0.520159840583801 0
v -3250.10302734375 46763.40625 191.72265625
vn -0.85406893491745 0.520159840583801 0
v -3300.9833984375 46662.96484375 491.72216796875
vn -0.924626886844635 0.38087409734726 0
v -3300.9833984375 46662.96484375 191.72265625
vn -0.924626886844635 0.38087409734726 0
v -3279.4755859375 46715.17578125 191.72265625
vn -0.924626886844635 0.38087409734726 0
v -3279.4755859375 46715.17578125 491.72216796875
vn -0.924626886844635 0.38087409734726 0
v -3314.1015625 46608.0390625 491.72216796875
vn -0.996948003768921 0.0780687779188156 0
v -3318.509765625 46551.7421875 491.72216796875
vn -0.996948003768921 0.0780687779188156 0
v -3318.509765625 46551.7421875 191.72265625
vn -0.996948003768921 0.0780687779188156 0
v -3314.1015625 46608.0390625 191.72265625
vn -0.996948003768921 0.0780687779188156 0
v -3300.9833984375 46662.96484375 191.72265625
vn -0.972643435001373 0.232303097844124 0
v -3300.9833984375 46662.96484375 491.72216796875
vn -0.972643435001373 0.232303097844124 0
v -3314.1015625 46608.0390625 491.72216796875
vn -0.972643435001373 0.232303097844124 0
v -3314.1015625 46608.0390625 191.72265625
vn -0.972643435001373 0.232303097844124 0
v -2541.40283203125 46413.40625 191.72265625
vn 0.997304975986481 8.42254749695544E-15 -0.0733673572540283
v -2519.33349609375 46413.40625 491.72216796875
vn 0.997304975986481 8.42254749695544E-15 -0.0733673572540283
v -2519.33349609375 46763.40625 491.72216796875
vn 0.997304975986481 8.42254749695544E-15 -0.0733673572540283
v -2541.40283203125 46763.40625 191.72265625
vn 0.997304975986481 8.42254749695544E-15 -0.0733673572540283
f 47//47 45//45 48//48
f 47//47 46//46 45//45
f 43//43 41//41 44//44
f 43//43 42//42 41//41
f 39//39 37//37 40//40
f 39//39 38//38 37//37
f 35//35 33//33 36//36
f 35//35 34//34 33//33
f 31//31 29//29 32//32
f 31//31 30//30 29//29
f 27//27 25//25 28//28
f 27//27 26//26 25//25
f 23//23 21//21 24//24
f 23//23 22//22 21//21
f 19//19 17//17 20//20
f 19//19 18//18 17//17
f 10//10 12//12 11//11
f 10//10 13//13 12//12
f 10//10 14//14 13//13
f 10//10 15//15 14//14
f 10//10 9//9 15//15
f 9//9 16//16 15//15
f 8//8 7//7 1//1
f 7//7 6//6 1//1
f 6//6 5//5 1//1
f 5//5 4//4 1//1
f 4//4 3//3 1//1
f 3//3 2//2 1//1
