v 410.8388671875 -34979.71875 3094.89990234375
vn 0.751140058040619 0 -0.66014289855957
v -4911.1103515625 -34979.71875 -2960.6513671875
vn 0.751140058040619 0 -0.66014289855957
v -4911.1103515625 -35269.71875 -2960.6513671875
vn 0.751140058040619 0 -0.66014289855957
v 410.8388671875 -35269.71875 3094.89990234375
vn 0.751140058040619 0 -0.66014289855957
v 410.8388671875 -35269.71875 3094.89990234375
vn 0 -1 0
v -4911.1103515625 -35269.71875 -2960.6513671875
vn 0 -1 0
v -5128.94091796875 -35269.71875 -2769.2099609375
vn 0 -1 0
v 193.0078125 -35269.71875 3286.34130859375
vn 0 -1 0
v 193.0078125 -35269.71875 3286.34130859375
vn -0.751140058040619 0 0.66014289855957
v -5128.94091796875 -35269.71875 -2769.2099609375
vn -0.751140058040619 0 0.66014289855957
v -5128.94091796875 -34979.71875 -2769.2099609375
vn -0.751140058040619 0 0.66014289855957
v 193.0078125 -34979.71875 3286.34130859375
vn -0.751140058040619 0 0.66014289855957
v 193.0078125 -34979.71875 3286.34130859375
vn 0 1 0
v -5128.94091796875 -34979.71875 -2769.2099609375
vn 0 1 0
v -4911.1103515625 -34979.71875 -2960.6513671875
vn 0 1 0
v 410.8388671875 -34979.71875 3094.89990234375
vn 0 1 0
v 410.8388671875 -34979.71875 3094.89990234375
vn 0.66014289855957 0 0.751140058040619
v 410.8388671875 -35269.71875 3094.89990234375
vn 0.66014289855957 0 0.751140058040619
v 193.0078125 -35269.71875 3286.34130859375
vn 0.66014289855957 0 0.751140058040619
v 193.0078125 -34979.71875 3286.34130859375
vn 0.66014289855957 0 0.751140058040619
v -4911.1103515625 -35269.71875 -2960.6513671875
vn -0.66014289855957 0 -0.751140058040619
v -4911.1103515625 -34979.71875 -2960.6513671875
vn -0.66014289855957 0 -0.751140058040619
v -5128.94091796875 -34979.71875 -2769.2099609375
vn -0.66014289855957 0 -0.751140058040619
v -5128.94091796875 -35269.71875 -2769.2099609375
vn -0.66014289855957 0 -0.751140058040619
f 23//23 21//21 24//24
f 23//23 22//22 21//21
f 19//19 17//17 20//20
f 19//19 18//18 17//17
f 15//15 13//13 16//16
f 15//15 14//14 13//13
f 11//11 9//9 12//12
f 11//11 10//10 9//9
f 7//7 5//5 8//8
f 7//7 6//6 5//5
f 3//3 1//1 4//4
f 3//3 2//2 1//1
