v -1877.45458984375 37096.6796875 4954.25341796875
vn -1 0 0
v -1877.45458984375 37107.734375 5123.89306640625
vn -1 0 0
v -1877.45458984375 35903.46875 5202.37255859375
vn -1 0 0
v -1877.45458984375 35892.4140625 5032.73193359375
vn -1 0 0
v -1877.45458984375 35892.4140625 5032.73193359375
vn 0 -0.997883319854736 0.0650294721126556
v -1877.45458984375 35903.46875 5202.37255859375
vn 0 -0.997883319854736 0.0650294721126556
v 2917.0029296875 35903.46875 5202.37255859375
vn 0 -0.997883319854736 0.0650294721126556
v 2917.0029296875 35892.4140625 5032.73193359375
vn 0 -0.997883319854736 0.0650294721126556
v 2917.0029296875 35892.4140625 5032.73193359375
vn 1 0 0
v 2917.0029296875 35903.46875 5202.37255859375
vn 1 0 0
v 2917.0029296875 37107.734375 5123.89306640625
vn 1 0 0
v 2917.0029296875 37096.6796875 4954.25341796875
vn 1 0 0
v 2917.0029296875 37096.6796875 4954.25341796875
vn -4.76401992128509E-15 -0.997883319854736 0.0650294721126556
v 2917.0029296875 37107.734375 5123.89306640625
vn -4.76401992128509E-15 -0.997883319854736 0.0650294721126556
v 5017.0029296875 37107.734375 5123.89306640625
vn -4.76401992128509E-15 -0.997883319854736 0.0650294721126556
v 5017.0029296875 37096.6796875 4954.25341796875
vn -4.76401992128509E-15 -0.997883319854736 0.0650294721126556
v 5017.0029296875 37096.6796875 4954.25341796875
vn 1 -2.31559728362189E-15 1.50901473887085E-16
v 5017.0029296875 37107.734375 5123.89306640625
vn 1 -2.31559728362189E-15 1.50901473887085E-16
v 5017.0029296875 50014.30078125 4282.80615234375
vn 1 -2.31559728362189E-15 1.50901473887085E-16
v 5017.0029296875 50003.2421875 4113.16552734375
vn 1 -2.31559728362189E-15 1.50901473887085E-16
v 5017.0029296875 50003.2421875 4113.16552734375
vn 0 0.997883319854736 -0.0650294721126556
v 5017.0029296875 50014.30078125 4282.80615234375
vn 0 0.997883319854736 -0.0650294721126556
v -3777.45458984375 50014.30078125 4282.80615234375
vn 0 0.997883319854736 -0.0650294721126556
v -3777.45458984375 50003.2421875 4113.16552734375
vn 0 0.997883319854736 -0.0650294721126556
v -3777.45458984375 50003.2421875 4113.16552734375
vn -1 2.31559728362189E-15 -1.50901473887085E-16
v -3777.45458984375 50014.30078125 4282.80615234375
vn -1 2.31559728362189E-15 -1.50901473887085E-16
v -3777.45458984375 37107.734375 5123.89306640625
vn -1 2.31559728362189E-15 -1.50901473887085E-16
v -3777.45458984375 37096.6796875 4954.25341796875
vn -1 2.31559728362189E-15 -1.50901473887085E-16
v -3777.45458984375 37096.6796875 4954.25341796875
vn 0 -0.997883319854736 0.0650294721126556
v -3777.45458984375 37107.734375 5123.89306640625
vn 0 -0.997883319854736 0.0650294721126556
v -1877.45458984375 37107.734375 5123.89306640625
vn 0 -0.997883319854736 0.0650294721126556
v -1877.45458984375 37096.6796875 4954.25341796875
vn 0 -0.997883319854736 0.0650294721126556
v -1877.45458984375 37096.6796875 4954.25341796875
vn 0 -0.0650294721126556 -0.997883319854736
v -1877.45458984375 35892.4140625 5032.73193359375
vn 0 -0.0650294721126556 -0.997883319854736
v 2917.0029296875 35892.4140625 5032.73193359375
vn 0 -0.0650294721126556 -0.997883319854736
v 2917.0029296875 37096.6796875 4954.25341796875
vn 0 -0.0650294721126556 -0.997883319854736
v 5017.0029296875 37096.6796875 4954.25341796875
vn 0 -0.0650294721126556 -0.997883319854736
v 5017.0029296875 50003.2421875 4113.16552734375
vn 0 -0.0650294721126556 -0.997883319854736
v -3777.45458984375 50003.2421875 4113.16552734375
vn 0 -0.0650294721126556 -0.997883319854736
v -3777.45458984375 37096.6796875 4954.25341796875
vn 0 -0.0650294721126556 -0.997883319854736
v -1877.45458984375 35903.46875 5202.37255859375
vn 0 0.0650294721126556 0.997883319854736
v -1877.45458984375 37107.734375 5123.89306640625
vn 0 0.0650294721126556 0.997883319854736
v -3777.45458984375 37107.734375 5123.89306640625
vn 0 0.0650294721126556 0.997883319854736
v -3777.45458984375 50014.30078125 4282.80615234375
vn 0 0.0650294721126556 0.997883319854736
v 5017.0029296875 50014.30078125 4282.80615234375
vn 0 0.0650294721126556 0.997883319854736
v 5017.0029296875 37107.734375 5123.89306640625
vn 0 0.0650294721126556 0.997883319854736
v 2917.0029296875 37107.734375 5123.89306640625
vn 0 0.0650294721126556 0.997883319854736
v 2917.0029296875 35903.46875 5202.37255859375
vn 0 0.0650294721126556 0.997883319854736
f 45//45 47//47 46//46
f 45//45 42//42 47//47
f 47//47 42//42 48//48
f 42//42 41//41 48//48
f 45//45 44//44 42//42
f 44//44 43//43 42//42
f 37//37 36//36 38//38
f 35//35 34//34 36//36
f 36//36 34//34 38//38
f 34//34 33//33 38//38
f 33//33 40//40 38//38
f 40//40 39//39 38//38
f 31//31 29//29 32//32
f 31//31 30//30 29//29
f 27//27 25//25 28//28
f 27//27 26//26 25//25
f 23//23 21//21 24//24
f 23//23 22//22 21//21
f 19//19 17//17 20//20
f 19//19 18//18 17//17
f 15//15 13//13 16//16
f 15//15 14//14 13//13
f 11//11 9//9 12//12
f 11//11 10//10 9//9
f 7//7 5//5 8//8
f 7//7 6//6 5//5
f 3//3 1//1 4//4
f 3//3 2//2 1//1
