v 3351.525390625 -35719.861328125 4474.56787109375
vn 0.966995060443878 0 0.254795134067535
v 5405.6357421875 -35719.861328125 -3321.16650390625
vn 0.966995060443878 0 0.254795134067535
v 5405.6357421875 -36019.861328125 -3321.16650390625
vn 0.966995060443878 0 0.254795134067535
v 3351.525390625 -36019.861328125 4474.56787109375
vn 0.966995060443878 0 0.254795134067535
v 3351.525390625 -36019.861328125 4474.56787109375
vn 0 -1 0
v 5405.6357421875 -36019.861328125 -3321.16650390625
vn 0 -1 0
v 5115.537109375 -36019.861328125 -3397.60498046875
vn 0 -1 0
v 3061.4267578125 -36019.861328125 4398.12841796875
vn 0 -1 0
v 3061.4267578125 -36019.861328125 4398.12841796875
vn -0.966995060443878 0 -0.254795134067535
v 5115.537109375 -36019.861328125 -3397.60498046875
vn -0.966995060443878 0 -0.254795134067535
v 5115.537109375 -35719.861328125 -3397.60498046875
vn -0.966995060443878 0 -0.254795134067535
v 3061.4267578125 -35719.861328125 4398.12841796875
vn -0.966995060443878 0 -0.254795134067535
v 3061.4267578125 -35719.861328125 4398.12841796875
vn 0 1 0
v 5115.537109375 -35719.861328125 -3397.60498046875
vn 0 1 0
v 5405.6357421875 -35719.861328125 -3321.16650390625
vn 0 1 0
v 3351.525390625 -35719.861328125 4474.56787109375
vn 0 1 0
v 3351.525390625 -35719.861328125 4474.56787109375
vn -0.254795134067535 0 0.966995060443878
v 3351.525390625 -36019.861328125 4474.56787109375
vn -0.254795134067535 0 0.966995060443878
v 3061.4267578125 -36019.861328125 4398.12841796875
vn -0.254795134067535 0 0.966995060443878
v 3061.4267578125 -35719.861328125 4398.12841796875
vn -0.254795134067535 0 0.966995060443878
v 5405.6357421875 -36019.861328125 -3321.16650390625
vn 0.254795134067535 0 -0.966995060443878
v 5405.6357421875 -35719.861328125 -3321.16650390625
vn 0.254795134067535 0 -0.966995060443878
v 5115.537109375 -35719.861328125 -3397.60498046875
vn 0.254795134067535 0 -0.966995060443878
v 5115.537109375 -36019.861328125 -3397.60498046875
vn 0.254795134067535 0 -0.966995060443878
f 23//23 21//21 24//24
f 23//23 22//22 21//21
f 19//19 17//17 20//20
f 19//19 18//18 17//17
f 15//15 13//13 16//16
f 15//15 14//14 13//13
f 11//11 9//9 12//12
f 11//11 10//10 9//9
f 7//7 5//5 8//8
f 7//7 6//6 5//5
f 3//3 1//1 4//4
f 3//3 2//2 1//1
