v -2419.67919921875 27892.08203125 6151.14013671875
vn 0 -0.999390840530396 -0.0348994955420494
v -2421.17822265625 27890.0390625 6209.60693359375
vn 0 -0.999390840530396 -0.0348994955420494
v -2421.17822265625 27887 6296.63037109375
vn 0 -0.999390840530396 -0.0348994955420494
v -2419.2900390625 27882.1640625 6435.14990234375
vn 0 -0.999390840530396 -0.0348994955420494
v -2219.91845703125 27882.1640625 6435.14990234375
vn 0 -0.999390840530396 -0.0348994955420494
v -2216.65576171875 27886.89453125 6299.69970703125
vn 0 -0.999390840530396 -0.0348994955420494
v -2216.65576171875 27892.08203125 6151.14013671875
vn 0 -0.999390840530396 -0.0348994955420494
v -2416.79931640625 27892.08203125 6038.80908203125
vn 0 -1 0
v -2419.67919921875 27892.08203125 6151.14013671875
vn 0 -1 0
v -2216.65576171875 27892.08203125 6151.14013671875
vn 0 -1 0
v -2216.65576171875 27892.08203125 6038.80908203125
vn 0 -1 0
v -2419.2900390625 28009.7421875 6435.14990234375
vn -0.99990713596344 0 0.0136287063360214
v -2419.2900390625 27882.1640625 6435.14990234375
vn -0.99990713596344 0 0.0136287063360214
v -2421.17822265625 27887 6296.63037109375
vn -0.99990713596344 0 0.0136287063360214
v -2421.17822265625 28014.58203125 6296.63037109375
vn -0.99990713596344 0 0.0136287063360214
v -2419.2900390625 27882.1640625 6435.14990234375
vn 0 0 1
v -2419.2900390625 28009.7421875 6435.14990234375
vn 0 0 1
v -2219.91845703125 28009.7421875 6435.14990234375
vn 0 0 1
v -2219.91845703125 27882.1640625 6435.14990234375
vn 0 0 1
v -2219.91845703125 28009.7421875 6435.14990234375
vn 0 0.999390840530396 0.0348994955420494
v -2419.2900390625 28009.7421875 6435.14990234375
vn 0 0.999390840530396 0.0348994955420494
v -2421.17822265625 28014.58203125 6296.63037109375
vn 0 0.999390840530396 0.0348994955420494
v -2421.17822265625 28017.62109375 6209.60693359375
vn 0 0.999390840530396 0.0348994955420494
v -2419.24462890625 28020.25390625 6134.19091796875
vn 0 0.999390840530396 0.0348994955420494
v -2216.65576171875 28020.25390625 6134.19091796875
vn 0 0.999390840530396 0.0348994955420494
v -2216.65576171875 28014.47265625 6299.69970703125
vn 0 0.999390840530396 0.0348994955420494
v -2419.24462890625 28020.25390625 6134.19091796875
vn 0 1 -9.41616644140227E-14
v -2416.79931640625 28020.25390625 6038.80908203125
vn 0 1 -9.41616644140227E-14
v -2216.65576171875 28020.25390625 6038.80908203125
vn 0 1 -9.41616644140227E-14
v -2216.65576171875 28020.25390625 6134.19091796875
vn 0 1 -9.41616644140227E-14
v -2416.79931640625 28020.25390625 6038.80908203125
vn 0 0 -1
v -2416.79931640625 27892.08203125 6038.80908203125
vn 0 0 -1
v -2216.65576171875 27892.08203125 6038.80908203125
vn 0 0 -1
v -2216.65576171875 28020.25390625 6038.80908203125
vn 0 0 -1
v -2421.17822265625 27890.0390625 6209.60693359375
vn -1 0 0
v -2421.17822265625 28017.62109375 6209.60693359375
vn -1 0 0
v -2421.17822265625 28014.58203125 6296.63037109375
vn -1 0 0
v -2421.17822265625 27887 6296.63037109375
vn -1 0 0
v -2419.67919921875 27892.08203125 6151.14013671875
vn -0.999671578407288 0 -0.0256278235465288
v -2416.79931640625 27892.08203125 6038.80908203125
vn -0.999671578407288 0 -0.0256278235465288
v -2416.79931640625 28020.25390625 6038.80908203125
vn -0.999671578407288 0 -0.0256278235465288
v -2419.24462890625 28020.25390625 6134.19091796875
vn -0.999671578407288 0 -0.0256278235465288
v -2421.17822265625 28017.62109375 6209.60693359375
vn -0.999671578407288 0 -0.0256278235465288
v -2421.17822265625 27890.0390625 6209.60693359375
vn -0.999671578407288 0 -0.0256278235465288
v -2216.65576171875 28020.25390625 6134.19091796875
vn 1 0 0
v -2216.65576171875 28020.25390625 6038.80908203125
vn 1 0 0
v -2216.65576171875 27892.08203125 6038.80908203125
vn 1 0 0
v -2216.65576171875 27892.08203125 6151.14013671875
vn 1 0 0
v -2216.65576171875 27886.89453125 6299.69970703125
vn 1 0 0
v -2216.65576171875 28014.47265625 6299.69970703125
vn 1 0 0
v -2219.91845703125 27882.1640625 6435.14990234375
vn 0.999710023403168 0 0.0240816064178944
v -2219.91845703125 28009.7421875 6435.14990234375
vn 0.999710023403168 0 0.0240816064178944
v -2216.65576171875 28014.47265625 6299.69970703125
vn 0.999710023403168 0 0.0240816064178944
v -2216.65576171875 27886.89453125 6299.69970703125
vn 0.999710023403168 0 0.0240816064178944
v -2219.91845703125 27705.734375 6435.14990234375
vn 0 0.999274909496307 -0.0380749590694904
v -2419.2900390625 27705.734375 6435.14990234375
vn 0 0.999274909496307 -0.0380749590694904
v -2421.166015625 27700.4921875 6297.51611328125
vn 0 0.999274909496307 -0.0380749590694904
v -2216.65576171875 27700.4921875 6297.51611328125
vn 0 0.999274909496307 -0.0380749590694904
v -2216.65576171875 27700.57421875 6299.69970703125
vn 0 0.999274909496307 -0.0380749590694904
v -2421.166015625 27700.4921875 6297.51611328125
vn 0 0.999808073043823 -0.0195922441780567
v -2421.17822265625 27700.47265625 6296.63037109375
vn 0 0.999808073043823 -0.0195922441780567
v -2421.17822265625 27698.76953125 6209.60693359375
vn 0 0.999808073043823 -0.0195922441780567
v -2416.79931640625 27695.421875 6038.80908203125
vn 0 0.999808073043823 -0.0195922441780567
v -2216.65576171875 27695.421875 6038.80908203125
vn 0 0.999808073043823 -0.0195922441780567
v -2216.65576171875 27700.4921875 6297.51611328125
vn 0 0.999808073043823 -0.0195922441780567
v -2416.79931640625 27695.421875 6038.80908203125
vn 0 0 -1
v -2416.79931640625 27565.396484375 6038.80908203125
vn 0 0 -1
v -2216.65576171875 27565.396484375 6038.80908203125
vn 0 0 -1
v -2216.65576171875 27695.421875 6038.80908203125
vn 0 0 -1
v -2419.2900390625 27575.640625 6435.14990234375
vn 0 0 1
v -2419.2900390625 27705.734375 6435.14990234375
vn 0 0 1
v -2219.91845703125 27705.734375 6435.14990234375
vn 0 0 1
v -2219.91845703125 27575.640625 6435.14990234375
vn 0 0 1
v -2416.79931640625 27565.396484375 6038.80908203125
vn 0 -0.999808073043823 0.0195922441780567
v -2421.17822265625 27568.7421875 6209.60693359375
vn 0 -0.999808073043823 0.0195922441780567
v -2421.17822265625 27570.44921875 6296.63037109375
vn 0 -0.999808073043823 0.0195922441780567
v -2421.11474609375 27570.5390625 6301.26513671875
vn 0 -0.999808073043823 0.0195922441780567
v -2216.693359375 27570.5390625 6301.26513671875
vn 0 -0.999808073043823 0.0195922441780567
v -2216.65576171875 27570.5078125 6299.69970703125
vn 0 -0.999808073043823 0.0195922441780567
v -2216.65576171875 27565.396484375 6038.80908203125
vn 0 -0.999808073043823 0.0195922441780567
v -2421.11474609375 27570.5390625 6301.26513671875
vn 0 -0.999274909496307 0.0380749590694904
v -2419.2900390625 27575.640625 6435.14990234375
vn 0 -0.999274909496307 0.0380749590694904
v -2219.91845703125 27575.640625 6435.14990234375
vn 0 -0.999274909496307 0.0380749590694904
v -2216.693359375 27570.5390625 6301.26513671875
vn 0 -0.999274909496307 0.0380749590694904
v -2216.693359375 27570.5390625 6301.26513671875
vn 0.999710023403168 0 0.0240816064178944
v -2219.91845703125 27575.640625 6435.14990234375
vn 0.999710023403168 0 0.0240816064178944
v -2219.91845703125 27705.734375 6435.14990234375
vn 0.999710023403168 0 0.0240816064178944
v -2216.65576171875 27700.57421875 6299.69970703125
vn 0.999710023403168 0 0.0240816064178944
v -2216.65576171875 27570.5078125 6299.69970703125
vn 0.999710023403168 0 0.0240816064178944
v -2216.65576171875 27700.4921875 6297.51611328125
vn 1 -7.65053032860882E-15 1.49919828875666E-16
v -2216.65576171875 27695.421875 6038.80908203125
vn 1 -7.65053032860882E-15 1.49919828875666E-16
v -2216.65576171875 27565.396484375 6038.80908203125
vn 1 -7.65053032860882E-15 1.49919828875666E-16
v -2216.65576171875 27570.5078125 6299.69970703125
vn 1 -7.65053032860882E-15 1.49919828875666E-16
v -2216.65576171875 27700.57421875 6299.69970703125
vn 1 -7.65053032860882E-15 1.49919828875666E-16
v -2416.79931640625 27565.396484375 6038.80908203125
vn -0.999671578407288 0 -0.0256278235465288
v -2416.79931640625 27695.421875 6038.80908203125
vn -0.999671578407288 0 -0.0256278235465288
v -2421.17822265625 27698.76953125 6209.60693359375
vn -0.999671578407288 0 -0.0256278235465288
v -2421.17822265625 27568.7421875 6209.60693359375
vn -0.999671578407288 0 -0.0256278235465288
v -2421.17822265625 27568.7421875 6209.60693359375
vn -1 0 0
v -2421.17822265625 27698.76953125 6209.60693359375
vn -1 0 0
v -2421.17822265625 27700.47265625 6296.63037109375
vn -1 0 0
v -2421.17822265625 27570.44921875 6296.63037109375
vn -1 0 0
v -2421.166015625 27700.4921875 6297.51611328125
vn -0.99990713596344 -1.66789765863613E-14 0.0136287063360214
v -2419.2900390625 27705.734375 6435.14990234375
vn -0.99990713596344 -1.66789765863613E-14 0.0136287063360214
v -2419.2900390625 27575.640625 6435.14990234375
vn -0.99990713596344 -1.66789765863613E-14 0.0136287063360214
v -2421.11474609375 27570.5390625 6301.26513671875
vn -0.99990713596344 -1.66789765863613E-14 0.0136287063360214
v -2421.17822265625 27570.44921875 6296.63037109375
vn -0.99990713596344 -1.66789765863613E-14 0.0136287063360214
v -2421.17822265625 27700.47265625 6296.63037109375
vn -0.99990713596344 -1.66789765863613E-14 0.0136287063360214
v -2396.4931640625 27678.46875 5246.72314453125
vn 0 1 0
v -2383.06201171875 27678.46875 4722.80419921875
vn 0 1 0
v -2239.771484375 27678.46875 4722.80419921875
vn 0 1 0
v -2226.34033203125 27678.46875 5246.72314453125
vn 0 1 0
v -2396.4931640625 27548.470703125 5246.72314453125
vn 0 0 1
v -2396.4931640625 27678.46875 5246.72314453125
vn 0 0 1
v -2226.34033203125 27678.46875 5246.72314453125
vn 0 0 1
v -2226.34033203125 27548.470703125 5246.72314453125
vn 0 0 1
v -2383.06201171875 27678.46875 4722.80419921875
vn 0 0 -1
v -2383.06201171875 27548.470703125 4722.80419921875
vn 0 0 -1
v -2239.771484375 27548.470703125 4722.80419921875
vn 0 0 -1
v -2239.771484375 27678.46875 4722.80419921875
vn 0 0 -1
v -2383.06201171875 27548.470703125 4722.80419921875
vn 0 -1 0
v -2396.4931640625 27548.470703125 5246.72314453125
vn 0 -1 0
v -2226.34033203125 27548.470703125 5246.72314453125
vn 0 -1 0
v -2239.771484375 27548.470703125 4722.80419921875
vn 0 -1 0
v -2239.771484375 27548.470703125 4722.80419921875
vn 0.999671578407288 -1.5517528397218E-14 -0.0256278235465288
v -2226.34033203125 27548.470703125 5246.72314453125
vn 0.999671578407288 -1.5517528397218E-14 -0.0256278235465288
v -2226.34033203125 27678.46875 5246.72314453125
vn 0.999671578407288 -1.5517528397218E-14 -0.0256278235465288
v -2239.771484375 27678.46875 4722.80419921875
vn 0.999671578407288 -1.5517528397218E-14 -0.0256278235465288
v -2396.4931640625 27548.470703125 5246.72314453125
vn -0.999671578407288 0 -0.0256278235465288
v -2383.06201171875 27548.470703125 4722.80419921875
vn -0.999671578407288 0 -0.0256278235465288
v -2383.06201171875 27678.46875 4722.80419921875
vn -0.999671578407288 0 -0.0256278235465288
v -2396.4931640625 27678.46875 5246.72314453125
vn -0.999671578407288 0 -0.0256278235465288
v -2383.06201171875 27877.046875 4722.80419921875
vn 0 -0.9998978972435 0.0142892841249704
v -2396.4931640625 27884.53515625 5246.72314453125
vn 0 -0.9998978972435 0.0142892841249704
v -2226.34033203125 27884.53515625 5246.72314453125
vn 0 -0.9998978972435 0.0142892841249704
v -2239.771484375 27877.046875 4722.80419921875
vn 0 -0.9998978972435 0.0142892841249704
v -2396.4931640625 27884.53515625 5246.72314453125
vn 0 0 1
v -2396.4931640625 28019.4296875 5246.72314453125
vn 0 0 1
v -2226.34033203125 28019.4296875 5246.72314453125
vn 0 0 1
v -2226.34033203125 27884.53515625 5246.72314453125
vn 0 0 1
v -2396.4931640625 28019.4296875 5246.72314453125
vn 0 0.999931931495667 -0.0116651644930243
v -2383.06201171875 28013.31640625 4722.80419921875
vn 0 0.999931931495667 -0.0116651644930243
v -2239.771484375 28013.31640625 4722.80419921875
vn 0 0.999931931495667 -0.0116651644930243
v -2226.34033203125 28019.4296875 5246.72314453125
vn 0 0.999931931495667 -0.0116651644930243
v -2383.06201171875 28013.31640625 4722.80419921875
vn 0 0 -1
v -2383.06201171875 27877.046875 4722.80419921875
vn 0 0 -1
v -2239.771484375 27877.046875 4722.80419921875
vn 0 0 -1
v -2239.771484375 28013.31640625 4722.80419921875
vn 0 0 -1
v -2226.34033203125 28019.4296875 5246.72314453125
vn 0.999671578407288 0 -0.0256278235465288
v -2239.771484375 28013.31640625 4722.80419921875
vn 0.999671578407288 0 -0.0256278235465288
v -2239.771484375 27877.046875 4722.80419921875
vn 0.999671578407288 0 -0.0256278235465288
v -2226.34033203125 27884.53515625 5246.72314453125
vn 0.999671578407288 0 -0.0256278235465288
v -2383.06201171875 28013.31640625 4722.80419921875
vn -0.999671578407288 0 -0.0256278235465288
v -2396.4931640625 28019.4296875 5246.72314453125
vn -0.999671578407288 0 -0.0256278235465288
v -2396.4931640625 27884.53515625 5246.72314453125
vn -0.999671578407288 0 -0.0256278235465288
v -2383.06201171875 27877.046875 4722.80419921875
vn -0.999671578407288 0 -0.0256278235465288
v -2405.9326171875 27847.94140625 7415.14990234375
vn 0 -0.999390840530396 -0.0348994955420494
v -2401.34423828125 27836.1875 7751.79541015625
vn 0 -0.999390840530396 -0.0348994955420494
v -2251.634765625 27836.1875 7751.79541015625
vn 0 -0.999390840530396 -0.0348994955420494
v -2243.525390625 27847.94140625 7415.14990234375
vn 0 -0.999390840530396 -0.0348994955420494
v -2401.34423828125 27836.1875 7751.79541015625
vn 0 0 1
v -2401.34423828125 27963.765625 7751.79541015625
vn 0 0 1
v -2251.634765625 27963.765625 7751.79541015625
vn 0 0 1
v -2251.634765625 27836.1875 7751.79541015625
vn 0 0 1
v -2401.34423828125 27963.765625 7751.79541015625
vn 0 0.999390840530396 0.0348994955420494
v -2405.9326171875 27975.51953125 7415.14990234375
vn 0 0.999390840530396 0.0348994955420494
v -2243.525390625 27975.51953125 7415.14990234375
vn 0 0.999390840530396 0.0348994955420494
v -2251.634765625 27963.765625 7751.79541015625
vn 0 0.999390840530396 0.0348994955420494
v -2405.9326171875 27975.51953125 7415.14990234375
vn 0 0 -1
v -2405.9326171875 27847.94140625 7415.14990234375
vn 0 0 -1
v -2243.525390625 27847.94140625 7415.14990234375
vn 0 0 -1
v -2243.525390625 27975.51953125 7415.14990234375
vn 0 0 -1
v -2251.634765625 27963.765625 7751.79541015625
vn 0.999710023403168 0 0.0240816064178944
v -2243.525390625 27975.51953125 7415.14990234375
vn 0.999710023403168 0 0.0240816064178944
v -2243.525390625 27847.94140625 7415.14990234375
vn 0.999710023403168 0 0.0240816064178944
v -2251.634765625 27836.1875 7751.79541015625
vn 0.999710023403168 0 0.0240816064178944
v -2405.9326171875 27975.51953125 7415.14990234375
vn -0.99990713596344 -8.63180359844283E-15 0.0136287063360214
v -2401.34423828125 27963.765625 7751.79541015625
vn -0.99990713596344 -8.63180359844283E-15 0.0136287063360214
v -2401.34423828125 27836.1875 7751.79541015625
vn -0.99990713596344 -8.63180359844283E-15 0.0136287063360214
v -2405.9326171875 27847.94140625 7415.14990234375
vn -0.99990713596344 -8.63180359844283E-15 0.0136287063360214
v -2405.9326171875 27743.07421875 7415.14990234375
vn 0 0 -1
v -2405.9326171875 27612.98046875 7415.14990234375
vn 0 0 -1
v -2243.525390625 27612.98046875 7415.14990234375
vn 0 0 -1
v -2243.525390625 27743.07421875 7415.14990234375
vn 0 0 -1
v -2401.34423828125 27755.90234375 7751.79541015625
vn 0 0.999274909496307 -0.0380749590694904
v -2405.9326171875 27743.07421875 7415.14990234375
vn 0 0.999274909496307 -0.0380749590694904
v -2243.525390625 27743.07421875 7415.14990234375
vn 0 0.999274909496307 -0.0380749590694904
v -2251.634765625 27755.90234375 7751.79541015625
vn 0 0.999274909496307 -0.0380749590694904
v -2401.34423828125 27625.80859375 7751.79541015625
vn -6.68256411578277E-14 7.69014436548601E-14 1
v -2401.34423828125 27755.90234375 7751.79541015625
vn -6.68256411578277E-14 7.69014436548601E-14 1
v -2251.634765625 27755.90234375 7751.79541015625
vn -6.68256411578277E-14 7.69014436548601E-14 1
v -2251.634765625 27625.80859375 7751.79541015625
vn -6.68256411578277E-14 7.69014436548601E-14 1
v -2405.9326171875 27612.98046875 7415.14990234375
vn 0 -0.999274909496307 0.0380749590694904
v -2401.34423828125 27625.80859375 7751.79541015625
vn 0 -0.999274909496307 0.0380749590694904
v -2251.634765625 27625.80859375 7751.79541015625
vn 0 -0.999274909496307 0.0380749590694904
v -2243.525390625 27612.98046875 7415.14990234375
vn 0 -0.999274909496307 0.0380749590694904
v -2251.634765625 27625.80859375 7751.79541015625
vn 0.999710023403168 -7.64423263864599E-15 0.0240816064178944
v -2251.634765625 27755.90234375 7751.79541015625
vn 0.999710023403168 -7.64423263864599E-15 0.0240816064178944
v -2243.525390625 27743.07421875 7415.14990234375
vn 0.999710023403168 -7.64423263864599E-15 0.0240816064178944
v -2243.525390625 27612.98046875 7415.14990234375
vn 0.999710023403168 -7.64423263864599E-15 0.0240816064178944
v -2401.34423828125 27755.90234375 7751.79541015625
vn -0.99990713596344 -1.50899055078625E-14 0.0136287063360214
v -2401.34423828125 27625.80859375 7751.79541015625
vn -0.99990713596344 -1.50899055078625E-14 0.0136287063360214
v -2405.9326171875 27612.98046875 7415.14990234375
vn -0.99990713596344 -1.50899055078625E-14 0.0136287063360214
v -2405.9326171875 27743.07421875 7415.14990234375
vn -0.99990713596344 -1.50899055078625E-14 0.0136287063360214
v -2416.0869140625 27714.6875 6670.14990234375
vn 0 0 -1
v -2416.0869140625 27584.59375 6670.14990234375
vn 0 0 -1
v -2225.5791015625 27584.59375 6670.14990234375
vn 0 0 -1
v -2225.5791015625 27714.6875 6670.14990234375
vn 0 0 -1
v -2411.998046875 27726.12109375 6970.14990234375
vn 0 0.999274909496307 -0.0380749590694904
v -2416.0869140625 27714.6875 6670.14990234375
vn 0 0.999274909496307 -0.0380749590694904
v -2225.5791015625 27714.6875 6670.14990234375
vn 0 0.999274909496307 -0.0380749590694904
v -2232.80615234375 27726.12109375 6970.14990234375
vn 0 0.999274909496307 -0.0380749590694904
v -2411.998046875 27596.025390625 6970.14990234375
vn 0 0 1
v -2411.998046875 27726.12109375 6970.14990234375
vn 0 0 1
v -2232.80615234375 27726.12109375 6970.14990234375
vn 0 0 1
v -2232.80615234375 27596.025390625 6970.14990234375
vn 0 0 1
v -2416.0869140625 27584.59375 6670.14990234375
vn 0 -0.999274909496307 0.0380749590694904
v -2411.998046875 27596.025390625 6970.14990234375
vn 0 -0.999274909496307 0.0380749590694904
v -2232.80615234375 27596.025390625 6970.14990234375
vn 0 -0.999274909496307 0.0380749590694904
v -2225.5791015625 27584.59375 6670.14990234375
vn 0 -0.999274909496307 0.0380749590694904
v -2232.80615234375 27596.025390625 6970.14990234375
vn 0.999710023403168 -7.64423263864599E-15 0.0240816064178944
v -2232.80615234375 27726.12109375 6970.14990234375
vn 0.999710023403168 -7.64423263864599E-15 0.0240816064178944
v -2225.5791015625 27714.6875 6670.14990234375
vn 0.999710023403168 -7.64423263864599E-15 0.0240816064178944
v -2225.5791015625 27584.59375 6670.14990234375
vn 0.999710023403168 -7.64423263864599E-15 0.0240816064178944
v -2411.998046875 27726.12109375 6970.14990234375
vn -0.99990713596344 -8.30791598710467E-15 0.0136287063360214
v -2411.998046875 27596.025390625 6970.14990234375
vn -0.99990713596344 -8.30791598710467E-15 0.0136287063360214
v -2416.0869140625 27584.59375 6670.14990234375
vn -0.99990713596344 -8.30791598710467E-15 0.0136287063360214
v -2416.0869140625 27714.6875 6670.14990234375
vn -0.99990713596344 -8.30791598710467E-15 0.0136287063360214
v -2416.0869140625 27873.95703125 6670.14990234375
vn 0 -0.999390840530396 -0.0348994955420494
v -2411.998046875 27863.48046875 6970.14990234375
vn 0 -0.999390840530396 -0.0348994955420494
v -2232.80615234375 27863.48046875 6970.14990234375
vn 0 -0.999390840530396 -0.0348994955420494
v -2225.5791015625 27873.95703125 6670.14990234375
vn 0 -0.999390840530396 -0.0348994955420494
v -2411.998046875 27863.48046875 6970.14990234375
vn 0 0 1
v -2411.998046875 27991.0625 6970.14990234375
vn 0 0 1
v -2232.80615234375 27991.0625 6970.14990234375
vn 0 0 1
v -2232.80615234375 27863.48046875 6970.14990234375
vn 0 0 1
v -2411.998046875 27991.0625 6970.14990234375
vn 0 0.999390840530396 0.0348994955420494
v -2416.0869140625 28001.53515625 6670.14990234375
vn 0 0.999390840530396 0.0348994955420494
v -2225.5791015625 28001.53515625 6670.14990234375
vn 0 0.999390840530396 0.0348994955420494
v -2232.80615234375 27991.0625 6970.14990234375
vn 0 0.999390840530396 0.0348994955420494
v -2416.0869140625 28001.53515625 6670.14990234375
vn 0 0 -1
v -2416.0869140625 27873.95703125 6670.14990234375
vn 0 0 -1
v -2225.5791015625 27873.95703125 6670.14990234375
vn 0 0 -1
v -2225.5791015625 28001.53515625 6670.14990234375
vn 0 0 -1
v -2232.80615234375 27991.0625 6970.14990234375
vn 0.999710023403168 0 0.0240816064178944
v -2225.5791015625 28001.53515625 6670.14990234375
vn 0.999710023403168 0 0.0240816064178944
v -2225.5791015625 27873.95703125 6670.14990234375
vn 0.999710023403168 0 0.0240816064178944
v -2232.80615234375 27863.48046875 6970.14990234375
vn 0.999710023403168 0 0.0240816064178944
v -2416.0869140625 28001.53515625 6670.14990234375
vn -0.99990713596344 0 0.0136287063360214
v -2411.998046875 27991.0625 6970.14990234375
vn -0.99990713596344 0 0.0136287063360214
v -2411.998046875 27863.48046875 6970.14990234375
vn -0.99990713596344 0 0.0136287063360214
v -2416.0869140625 27873.95703125 6670.14990234375
vn -0.99990713596344 0 0.0136287063360214
f 251//251 249//249 252//252
f 251//251 250//250 249//249
f 247//247 245//245 248//248
f 247//247 246//246 245//245
f 243//243 241//241 244//244
f 243//243 242//242 241//241
f 239//239 237//237 240//240
f 239//239 238//238 237//237
f 235//235 233//233 236//236
f 235//235 234//234 233//233
f 231//231 229//229 232//232
f 231//231 230//230 229//229
f 227//227 225//225 228//228
f 227//227 226//226 225//225
f 223//223 221//221 224//224
f 223//223 222//222 221//221
f 219//219 217//217 220//220
f 219//219 218//218 217//217
f 215//215 213//213 216//216
f 215//215 214//214 213//213
f 211//211 209//209 212//212
f 211//211 210//210 209//209
f 207//207 205//205 208//208
f 207//207 206//206 205//205
f 203//203 201//201 204//204
f 203//203 202//202 201//201
f 199//199 197//197 200//200
f 199//199 198//198 197//197
f 195//195 193//193 196//196
f 195//195 194//194 193//193
f 191//191 189//189 192//192
f 191//191 190//190 189//189
f 187//187 185//185 188//188
f 187//187 186//186 185//185
f 183//183 181//181 184//184
f 183//183 182//182 181//181
f 179//179 177//177 180//180
f 179//179 178//178 177//177
f 175//175 173//173 176//176
f 175//175 174//174 173//173
f 171//171 169//169 172//172
f 171//171 170//170 169//169
f 167//167 165//165 168//168
f 167//167 166//166 165//165
f 163//163 161//161 164//164
f 163//163 162//162 161//161
f 159//159 157//157 160//160
f 159//159 158//158 157//157
f 155//155 153//153 156//156
f 155//155 154//154 153//153
f 151//151 149//149 152//152
f 151//151 150//150 149//149
f 147//147 145//145 148//148
f 147//147 146//146 145//145
f 143//143 141//141 144//144
f 143//143 142//142 141//141
f 139//139 137//137 140//140
f 139//139 138//138 137//137
f 135//135 133//133 136//136
f 135//135 134//134 133//133
f 131//131 129//129 132//132
f 131//131 130//130 129//129
f 127//127 125//125 128//128
f 127//127 126//126 125//125
f 123//123 121//121 124//124
f 123//123 122//122 121//121
f 119//119 117//117 120//120
f 119//119 118//118 117//117
f 115//115 113//113 116//116
f 115//115 114//114 113//113
f 111//111 109//109 112//112
f 111//111 110//110 109//109
f 108//108 105//105 103//103
f 103//103 105//105 104//104
f 108//108 106//106 105//105
f 108//108 107//107 106//106
f 101//101 99//99 102//102
f 101//101 100//100 99//99
f 97//97 95//95 98//98
f 97//97 96//96 95//95
f 93//93 90//90 94//94
f 93//93 92//92 90//90
f 92//92 91//91 90//90
f 87//87 86//86 88//88
f 86//86 85//85 88//88
f 85//85 89//89 88//88
f 83//83 81//81 84//84
f 83//83 82//82 81//81
f 79//79 78//78 80//80
f 78//78 74//74 80//80
f 78//78 77//77 74//74
f 77//77 76//76 74//74
f 76//76 75//75 74//74
f 72//72 70//70 73//73
f 72//72 71//71 70//70
f 68//68 66//66 69//69
f 68//68 67//67 66//66
f 64//64 63//63 65//65
f 63//63 60//60 65//65
f 63//63 62//62 60//60
f 62//62 61//61 60//60
f 58//58 55//55 59//59
f 58//58 56//56 55//55
f 58//58 57//57 56//56
f 53//53 51//51 54//54
f 53//53 52//52 51//51
f 49//49 48//48 50//50
f 48//48 45//45 50//50
f 48//48 47//47 45//45
f 47//47 46//46 45//45
f 41//41 43//43 42//42
f 41//41 40//40 43//43
f 40//40 39//39 43//43
f 39//39 44//44 43//43
f 37//37 35//35 38//38
f 37//37 36//36 35//35
f 33//33 31//31 34//34
f 33//33 32//32 31//31
f 29//29 27//27 30//30
f 29//29 28//28 27//27
f 25//25 20//20 26//26
f 25//25 24//24 20//20
f 24//24 21//21 20//20
f 24//24 23//23 21//21
f 23//23 22//22 21//21
f 18//18 16//16 19//19
f 18//18 17//17 16//16
f 14//14 12//12 15//15
f 14//14 13//13 12//12
f 10//10 8//8 11//11
f 10//10 9//9 8//8
f 6//6 5//5 7//7
f 5//5 4//4 7//7
f 4//4 1//1 7//7
f 4//4 3//3 1//1
f 3//3 2//2 1//1
