v 1031.4091796875 35010.2890625 1842.96044921875
vn 0.383674621582031 0 0.923468351364136
v 120.6220703125 35010.2890625 2221.36572265625
vn 0.383674621582031 0 0.923468351364136
v 120.6220703125 35210.2890625 2221.36572265625
vn 0.383674621582031 0 0.923468351364136
v 1031.4091796875 35210.2890625 1842.96044921875
vn 0.383674621582031 0 0.923468351364136
v 1031.4091796875 35210.2890625 1842.96044921875
vn 0 1 0
v 120.6220703125 35210.2890625 2221.36572265625
vn 0 1 0
v 5.51953125 35210.2890625 1944.32568359375
vn 0 1 0
v 916.306640625 35210.2890625 1565.91943359375
vn 0 1 0
v 916.306640625 35210.2890625 1565.91943359375
vn -0.383674621582031 0 -0.923468351364136
v 5.51953125 35210.2890625 1944.32568359375
vn -0.383674621582031 0 -0.923468351364136
v 5.51953125 35010.2890625 1944.32568359375
vn -0.383674621582031 0 -0.923468351364136
v 916.306640625 35010.2890625 1565.91943359375
vn -0.383674621582031 0 -0.923468351364136
v 916.306640625 35010.2890625 1565.91943359375
vn 0 -1 0
v 5.51953125 35010.2890625 1944.32568359375
vn 0 -1 0
v 120.6220703125 35010.2890625 2221.36572265625
vn 0 -1 0
v 1031.4091796875 35010.2890625 1842.96044921875
vn 0 -1 0
v 1031.4091796875 35010.2890625 1842.96044921875
vn 0.923468351364136 0 -0.383674621582031
v 1031.4091796875 35210.2890625 1842.96044921875
vn 0.923468351364136 0 -0.383674621582031
v 916.306640625 35210.2890625 1565.91943359375
vn 0.923468351364136 0 -0.383674621582031
v 916.306640625 35010.2890625 1565.91943359375
vn 0.923468351364136 0 -0.383674621582031
v 120.6220703125 35210.2890625 2221.36572265625
vn -0.923468351364136 0 0.383674621582031
v 120.6220703125 35010.2890625 2221.36572265625
vn -0.923468351364136 0 0.383674621582031
v 5.51953125 35010.2890625 1944.32568359375
vn -0.923468351364136 0 0.383674621582031
v 5.51953125 35210.2890625 1944.32568359375
vn -0.923468351364136 0 0.383674621582031
f 23//23 21//21 24//24
f 23//23 22//22 21//21
f 19//19 17//17 20//20
f 19//19 18//18 17//17
f 15//15 13//13 16//16
f 15//15 14//14 13//13
f 11//11 9//9 12//12
f 11//11 10//10 9//9
f 7//7 5//5 8//8
f 7//7 6//6 5//5
f 3//3 1//1 4//4
f 3//3 2//2 1//1
