v -4211.1796875 35810.2890625 -2907.3525390625
vn 1 3.41060505541552E-15 0
v -4211.1796875 35810.2890625 -2607.3525390625
vn 1 3.41060505541552E-15 0
v -4211.1796875 36110.2890625 -2607.3525390625
vn 1 3.41060505541552E-15 0
v -4211.1796875 36110.2890625 -2907.3525390625
vn 1 3.41060505541552E-15 0
v -4211.1796875 36110.2890625 -2907.3525390625
vn -1.62229753827674E-13 1 0
v -4211.1796875 36110.2890625 -2607.3525390625
vn -1.62229753827674E-13 1 0
v -5311.04907226563 36110.2890625 -2607.3525390625
vn -1.62229753827674E-13 1 0
v -5311.04907226563 36110.2890625 -2907.3525390625
vn -1.62229753827674E-13 1 0
v -5311.04907226563 36110.2890625 -2907.3525390625
vn -0.766143918037415 0.642669081687927 0
v -5311.04907226563 36110.2890625 -2607.3525390625
vn -0.766143918037415 0.642669081687927 0
v -5322.74438476563 36096.34765625 -2607.3525390625
vn -0.766143918037415 0.642669081687927 0
v -5322.74438476563 36096.34765625 -2907.3525390625
vn -0.766143918037415 0.642669081687927 0
v -5322.74438476563 36096.34765625 -2907.3525390625
vn -0.791004598140717 0.611810207366943 0
v -5322.74438476563 36096.34765625 -2607.3525390625
vn -0.791004598140717 0.611810207366943 0
v -5333.8779296875 36081.953125 -2607.3525390625
vn -0.791004598140717 0.611810207366943 0
v -5333.8779296875 36081.953125 -2907.3525390625
vn -0.791004598140717 0.611810207366943 0
v -5333.8779296875 36081.953125 -2907.3525390625
vn -0.814623117446899 0.579990684986115 0
v -5333.8779296875 36081.953125 -2607.3525390625
vn -0.814623117446899 0.579990684986115 0
v -5344.4326171875 36067.12890625 -2607.3525390625
vn -0.814623117446899 0.579990684986115 0
v -5344.4326171875 36067.12890625 -2907.3525390625
vn -0.814623117446899 0.579990684986115 0
v -5344.4326171875 36067.12890625 -2907.3525390625
vn -0.836962461471558 0.547260284423828 0
v -5344.4326171875 36067.12890625 -2607.3525390625
vn -0.836962461471558 0.547260284423828 0
v -5354.39184570313 36051.8984375 -2607.3525390625
vn -0.836962461471558 0.547260284423828 0
v -5354.39184570313 36051.8984375 -2907.3525390625
vn -0.836962461471558 0.547260284423828 0
v -5354.39184570313 36051.8984375 -2907.3525390625
vn -0.857987463474274 0.513670563697815 0
v -5354.39184570313 36051.8984375 -2607.3525390625
vn -0.857987463474274 0.513670563697815 0
v -5363.73950195313 36036.28515625 -2607.3525390625
vn -0.857987463474274 0.513670563697815 0
v -5363.73950195313 36036.28515625 -2907.3525390625
vn -0.857987463474274 0.513670563697815 0
v -5363.73950195313 36036.28515625 -2907.3525390625
vn -0.877665221691132 0.479274243116379 0
v -5363.73950195313 36036.28515625 -2607.3525390625
vn -0.877665221691132 0.479274243116379 0
v -5372.46142578125 36020.3125 -2607.3525390625
vn -0.877665221691132 0.479274243116379 0
v -5372.46142578125 36020.3125 -2907.3525390625
vn -0.877665221691132 0.479274243116379 0
v -5372.46142578125 36020.3125 -2907.3525390625
vn -0.895964682102203 0.444125264883041 0
v -5372.46142578125 36020.3125 -2607.3525390625
vn -0.895964682102203 0.444125264883041 0
v -5380.54345703125 36004.0078125 -2607.3525390625
vn -0.895964682102203 0.444125264883041 0
v -5380.54345703125 36004.0078125 -2907.3525390625
vn -0.895964682102203 0.444125264883041 0
v -5380.54345703125 36004.0078125 -2907.3525390625
vn -0.912857234477997 0.40827888250351 0
v -5380.54345703125 36004.0078125 -2607.3525390625
vn -0.912857234477997 0.40827888250351 0
v -5387.97338867188 35987.39453125 -2607.3525390625
vn -0.912857234477997 0.40827888250351 0
v -5387.97338867188 35987.39453125 -2907.3525390625
vn -0.912857234477997 0.40827888250351 0
v -5387.97338867188 35987.39453125 -2907.3525390625
vn -0.928316295146942 0.371791362762451 0
v -5387.97338867188 35987.39453125 -2607.3525390625
vn -0.928316295146942 0.371791362762451 0
v -5394.7392578125 35970.5 -2607.3525390625
vn -0.928316295146942 0.371791362762451 0
v -5394.7392578125 35970.5 -2907.3525390625
vn -0.928316295146942 0.371791362762451 0
v -5394.7392578125 35970.5 -2907.3525390625
vn -0.942317605018616 0.334720015525818 0
v -5394.7392578125 35970.5 -2607.3525390625
vn -0.942317605018616 0.334720015525818 0
v -5400.83056640625 35953.3515625 -2607.3525390625
vn -0.942317605018616 0.334720015525818 0
v -5400.83056640625 35953.3515625 -2907.3525390625
vn -0.942317605018616 0.334720015525818 0
v -5400.83056640625 35953.3515625 -2907.3525390625
vn -0.954839169979095 0.297123044729233 0
v -5400.83056640625 35953.3515625 -2607.3525390625
vn -0.954839169979095 0.297123044729233 0
v -5406.23754882813 35935.9765625 -2607.3525390625
vn -0.954839169979095 0.297123044729233 0
v -5406.23754882813 35935.9765625 -2907.3525390625
vn -0.954839169979095 0.297123044729233 0
v -5406.23754882813 35935.9765625 -2907.3525390625
vn -0.96586138010025 0.259059518575668 0
v -5406.23754882813 35935.9765625 -2607.3525390625
vn -0.96586138010025 0.259059518575668 0
v -5410.95190429688 35918.3984375 -2607.3525390625
vn -0.96586138010025 0.259059518575668 0
v -5410.95190429688 35918.3984375 -2907.3525390625
vn -0.96586138010025 0.259059518575668 0
v -5410.95190429688 35918.3984375 -2907.3525390625
vn -0.975366830825806 0.220589160919189 0
v -5410.95190429688 35918.3984375 -2607.3525390625
vn -0.975366830825806 0.220589160919189 0
v -5414.96606445313 35900.6484375 -2607.3525390625
vn -0.975366830825806 0.220589160919189 0
v -5414.96606445313 35900.6484375 -2907.3525390625
vn -0.975366830825806 0.220589160919189 0
v -5414.96606445313 35900.6484375 -2907.3525390625
vn -0.983340620994568 0.181772410869598 0
v -5414.96606445313 35900.6484375 -2607.3525390625
vn -0.983340620994568 0.181772410869598 0
v -5418.27416992188 35882.75390625 -2607.3525390625
vn -0.983340620994568 0.181772410869598 0
v -5418.27416992188 35882.75390625 -2907.3525390625
vn -0.983340620994568 0.181772410869598 0
v -5418.27416992188 35882.75390625 -2907.3525390625
vn -0.989770293235779 0.142670229077339 0
v -5418.27416992188 35882.75390625 -2607.3525390625
vn -0.989770293235779 0.142670229077339 0
v -5420.87036132813 35864.7421875 -2607.3525390625
vn -0.989770293235779 0.142670229077339 0
v -5420.87036132813 35864.7421875 -2907.3525390625
vn -0.989770293235779 0.142670229077339 0
v -5420.87036132813 35864.7421875 -2907.3525390625
vn -0.994645655155182 0.10334400832653 0
v -5420.87036132813 35864.7421875 -2607.3525390625
vn -0.994645655155182 0.10334400832653 0
v -5422.7509765625 35846.64453125 -2607.3525390625
vn -0.994645655155182 0.10334400832653 0
v -5422.7509765625 35846.64453125 -2907.3525390625
vn -0.994645655155182 0.10334400832653 0
v -5422.7509765625 35846.64453125 -2907.3525390625
vn -0.997959136962891 0.0638554990291595 0
v -5422.7509765625 35846.64453125 -2607.3525390625
vn -0.997959136962891 0.0638554990291595 0
v -5423.9130859375 35828.48046875 -2607.3525390625
vn -0.997959136962891 0.0638554990291595 0
v -5423.9130859375 35828.48046875 -2907.3525390625
vn -0.997959136962891 0.0638554990291595 0
v -5423.9130859375 35828.48046875 -2907.3525390625
vn -0.999705493450165 0.0242667142301798 0
v -5423.9130859375 35828.48046875 -2607.3525390625
vn -0.999705493450165 0.0242667142301798 0
v -5424.35473632813 35810.2890625 -2607.3525390625
vn -0.999705493450165 0.0242667142301798 0
v -5424.35473632813 35810.2890625 -2907.3525390625
vn -0.999705493450165 0.0242667142301798 0
v -5424.35473632813 35810.2890625 -2907.3525390625
vn 0 -1 0
v -5424.35473632813 35810.2890625 -2607.3525390625
vn 0 -1 0
v -4211.1796875 35810.2890625 -2607.3525390625
vn 0 -1 0
v -4211.1796875 35810.2890625 -2907.3525390625
vn 0 -1 0
v -4211.1796875 35810.2890625 -2907.3525390625
vn 0 0 -1
v -4211.1796875 36110.2890625 -2907.3525390625
vn 0 0 -1
v -5311.04907226563 36110.2890625 -2907.3525390625
vn 0 0 -1
v -5322.74438476563 36096.34765625 -2907.3525390625
vn 0 0 -1
v -5333.8779296875 36081.953125 -2907.3525390625
vn 0 0 -1
v -5344.4326171875 36067.12890625 -2907.3525390625
vn 0 0 -1
v -5354.39184570313 36051.8984375 -2907.3525390625
vn 0 0 -1
v -5363.73950195313 36036.28515625 -2907.3525390625
vn 0 0 -1
v -5372.46142578125 36020.3125 -2907.3525390625
vn 0 0 -1
v -5380.54345703125 36004.0078125 -2907.3525390625
vn 0 0 -1
v -5387.97338867188 35987.39453125 -2907.3525390625
vn 0 0 -1
v -5394.7392578125 35970.5 -2907.3525390625
vn 0 0 -1
v -5400.83056640625 35953.3515625 -2907.3525390625
vn 0 0 -1
v -5406.23754882813 35935.9765625 -2907.3525390625
vn 0 0 -1
v -5410.95190429688 35918.3984375 -2907.3525390625
vn 0 0 -1
v -5414.96606445313 35900.6484375 -2907.3525390625
vn 0 0 -1
v -5418.27416992188 35882.75390625 -2907.3525390625
vn 0 0 -1
v -5420.87036132813 35864.7421875 -2907.3525390625
vn 0 0 -1
v -5422.7509765625 35846.64453125 -2907.3525390625
vn 0 0 -1
v -5423.9130859375 35828.48046875 -2907.3525390625
vn 0 0 -1
v -5424.35473632813 35810.2890625 -2907.3525390625
vn 0 0 -1
v -4211.1796875 36110.2890625 -2607.3525390625
vn 0 0 1
v -4211.1796875 35810.2890625 -2607.3525390625
vn 0 0 1
v -5424.35473632813 35810.2890625 -2607.3525390625
vn 0 0 1
v -5423.9130859375 35828.48046875 -2607.3525390625
vn 0 0 1
v -5422.7509765625 35846.64453125 -2607.3525390625
vn 0 0 1
v -5420.87036132813 35864.7421875 -2607.3525390625
vn 0 0 1
v -5418.27416992188 35882.75390625 -2607.3525390625
vn 0 0 1
v -5414.96606445313 35900.6484375 -2607.3525390625
vn 0 0 1
v -5410.95190429688 35918.3984375 -2607.3525390625
vn 0 0 1
v -5406.23754882813 35935.9765625 -2607.3525390625
vn 0 0 1
v -5400.83056640625 35953.3515625 -2607.3525390625
vn 0 0 1
v -5394.7392578125 35970.5 -2607.3525390625
vn 0 0 1
v -5387.97338867188 35987.39453125 -2607.3525390625
vn 0 0 1
v -5380.54345703125 36004.0078125 -2607.3525390625
vn 0 0 1
v -5372.46142578125 36020.3125 -2607.3525390625
vn 0 0 1
v -5363.73950195313 36036.28515625 -2607.3525390625
vn 0 0 1
v -5354.39184570313 36051.8984375 -2607.3525390625
vn 0 0 1
v -5344.4326171875 36067.12890625 -2607.3525390625
vn 0 0 1
v -5333.8779296875 36081.953125 -2607.3525390625
vn 0 0 1
v -5322.74438476563 36096.34765625 -2607.3525390625
vn 0 0 1
v -5311.04907226563 36110.2890625 -2607.3525390625
vn 0 0 1
f 108//108 110//110 109//109
f 108//108 111//111 110//110
f 108//108 112//112 111//111
f 108//108 113//113 112//112
f 108//108 114//114 113//113
f 108//108 115//115 114//114
f 108//108 116//116 115//115
f 108//108 117//117 116//116
f 108//108 118//118 117//117
f 108//108 119//119 118//118
f 108//108 120//120 119//119
f 108//108 121//121 120//120
f 108//108 122//122 121//121
f 108//108 123//123 122//122
f 108//108 124//124 123//123
f 108//108 125//125 124//124
f 108//108 126//126 125//125
f 108//108 107//107 126//126
f 107//107 106//106 126//126
f 104//104 103//103 105//105
f 103//103 102//102 105//105
f 102//102 101//101 105//105
f 101//101 100//100 105//105
f 100//100 99//99 105//105
f 99//99 98//98 105//105
f 98//98 97//97 105//105
f 97//97 96//96 105//105
f 96//96 95//95 105//105
f 95//95 94//94 105//105
f 94//94 93//93 105//105
f 93//93 92//92 105//105
f 92//92 91//91 105//105
f 91//91 90//90 105//105
f 90//90 89//89 105//105
f 89//89 88//88 105//105
f 88//88 87//87 105//105
f 87//87 86//86 105//105
f 86//86 85//85 105//105
f 83//83 81//81 84//84
f 83//83 82//82 81//81
f 79//79 77//77 80//80
f 79//79 78//78 77//77
f 75//75 73//73 76//76
f 75//75 74//74 73//73
f 71//71 69//69 72//72
f 71//71 70//70 69//69
f 67//67 65//65 68//68
f 67//67 66//66 65//65
f 63//63 61//61 64//64
f 63//63 62//62 61//61
f 59//59 57//57 60//60
f 59//59 58//58 57//57
f 55//55 53//53 56//56
f 55//55 54//54 53//53
f 51//51 49//49 52//52
f 51//51 50//50 49//49
f 47//47 45//45 48//48
f 47//47 46//46 45//45
f 43//43 41//41 44//44
f 43//43 42//42 41//41
f 39//39 37//37 40//40
f 39//39 38//38 37//37
f 35//35 33//33 36//36
f 35//35 34//34 33//33
f 31//31 29//29 32//32
f 31//31 30//30 29//29
f 27//27 25//25 28//28
f 27//27 26//26 25//25
f 23//23 21//21 24//24
f 23//23 22//22 21//21
f 19//19 17//17 20//20
f 19//19 18//18 17//17
f 15//15 13//13 16//16
f 15//15 14//14 13//13
f 11//11 9//9 12//12
f 11//11 10//10 9//9
f 7//7 5//5 8//8
f 7//7 6//6 5//5
f 3//3 1//1 4//4
f 3//3 2//2 1//1
