v 1063.115234375 36110.2890625 -1269.87060546875
vn 0.405461877584457 0 0.914111971855164
v 161.556640625 36110.2890625 -869.9765625
vn 0.405461877584457 0 0.914111971855164
v 161.556640625 36310.2890625 -869.9765625
vn 0.405461877584457 0 0.914111971855164
v 1063.115234375 36310.2890625 -1269.87060546875
vn 0.405461877584457 0 0.914111971855164
v 1063.115234375 36310.2890625 -1269.87060546875
vn 0 1 0
v 161.556640625 36310.2890625 -869.9765625
vn 0 1 0
v 39.91796875 36310.2890625 -1144.21044921875
vn 0 1 0
v 941.4765625 36310.2890625 -1544.10400390625
vn 0 1 0
v 941.4765625 36310.2890625 -1544.10400390625
vn -0.405461877584457 0 -0.914111971855164
v 39.91796875 36310.2890625 -1144.21044921875
vn -0.405461877584457 0 -0.914111971855164
v 39.91796875 36110.2890625 -1144.21044921875
vn -0.405461877584457 0 -0.914111971855164
v 941.4765625 36110.2890625 -1544.10400390625
vn -0.405461877584457 0 -0.914111971855164
v 941.4765625 36110.2890625 -1544.10400390625
vn 0 -1 0
v 39.91796875 36110.2890625 -1144.21044921875
vn 0 -1 0
v 161.556640625 36110.2890625 -869.9765625
vn 0 -1 0
v 1063.115234375 36110.2890625 -1269.87060546875
vn 0 -1 0
v 1063.115234375 36110.2890625 -1269.87060546875
vn 0.914111971855164 0 -0.405461877584457
v 1063.115234375 36310.2890625 -1269.87060546875
vn 0.914111971855164 0 -0.405461877584457
v 941.4765625 36310.2890625 -1544.10400390625
vn 0.914111971855164 0 -0.405461877584457
v 941.4765625 36110.2890625 -1544.10400390625
vn 0.914111971855164 0 -0.405461877584457
v 161.556640625 36310.2890625 -869.9765625
vn -0.914111971855164 0 0.405461877584457
v 161.556640625 36110.2890625 -869.9765625
vn -0.914111971855164 0 0.405461877584457
v 39.91796875 36110.2890625 -1144.21044921875
vn -0.914111971855164 0 0.405461877584457
v 39.91796875 36310.2890625 -1144.21044921875
vn -0.914111971855164 0 0.405461877584457
f 23//23 21//21 24//24
f 23//23 22//22 21//21
f 19//19 17//17 20//20
f 19//19 18//18 17//17
f 15//15 13//13 16//16
f 15//15 14//14 13//13
f 11//11 9//9 12//12
f 11//11 10//10 9//9
f 7//7 5//5 8//8
f 7//7 6//6 5//5
f 3//3 1//1 4//4
f 3//3 2//2 1//1
