v 3590.7255859375 12210.09765625 6207.93994140625
vn 1 0 0
v 3590.7255859375 12018.734375 6207.93994140625
vn 1 0 0
v 3590.7255859375 12020.490234375 6297.51611328125
vn 1 0 0
v 3590.7255859375 12025.734375 6435.14990234375
vn 1 0 0
v 3590.7255859375 12202.1640625 6435.14990234375
vn 1 0 0
v 3126.203125 12206.83984375 6301.26513671875
vn -1 0 0
v 3126.203125 12020.6328125 6301.26513671875
vn -1 0 0
v 3126.203125 12020.490234375 6297.51611328125
vn -1 0 0
v 3126.203125 12015.421875 6038.80908203125
vn -1 0 0
v 3126.203125 12212.08203125 6038.80908203125
vn -1 0 0
v 3126.203125 12212.08203125 6151.14013671875
vn -1 0 0
v 3589.26953125 12212.08203125 6151.14013671875
vn -1.33484597073658E-12 0.999390840530396 0.0348994955420494
v 3590.7255859375 12210.09765625 6207.93994140625
vn -1.33484597073658E-12 0.999390840530396 0.0348994955420494
v 3590.7255859375 12202.1640625 6435.14990234375
vn -1.33484597073658E-12 0.999390840530396 0.0348994955420494
v 3129.4287109375 12202.1640625 6435.14990234375
vn -1.33484597073658E-12 0.999390840530396 0.0348994955420494
v 3126.203125 12206.83984375 6301.26513671875
vn -1.33484597073658E-12 0.999390840530396 0.0348994955420494
v 3126.203125 12212.08203125 6151.14013671875
vn -1.33484597073658E-12 0.999390840530396 0.0348994955420494
v 3126.203125 12020.490234375 6297.51611328125
vn 4.77151108067061E-15 -0.999274909496307 0.0380749590694904
v 3126.203125 12020.6328125 6301.26513671875
vn 4.77151108067061E-15 -0.999274909496307 0.0380749590694904
v 3129.4287109375 12025.734375 6435.14990234375
vn 4.77151108067061E-15 -0.999274909496307 0.0380749590694904
v 3590.7255859375 12025.734375 6435.14990234375
vn 4.77151108067061E-15 -0.999274909496307 0.0380749590694904
v 3590.7255859375 12020.490234375 6297.51611328125
vn 4.77151108067061E-15 -0.999274909496307 0.0380749590694904
v 3590.7255859375 12020.490234375 6297.51611328125
vn 4.56173871260187E-15 -0.999808073043823 0.0195922441780567
v 3590.7255859375 12018.734375 6207.93994140625
vn 4.56173871260187E-15 -0.999808073043823 0.0195922441780567
v 3586.3896484375 12015.421875 6038.80908203125
vn 4.56173871260187E-15 -0.999808073043823 0.0195922441780567
v 3126.203125 12015.421875 6038.80908203125
vn 4.56173871260187E-15 -0.999808073043823 0.0195922441780567
v 3126.203125 12020.490234375 6297.51611328125
vn 4.56173871260187E-15 -0.999808073043823 0.0195922441780567
v 3586.3896484375 12212.08203125 6038.80908203125
vn -4.35778080219956E-15 1 1.1171713417706E-16
v 3589.26953125 12212.08203125 6151.14013671875
vn -4.35778080219956E-15 1 1.1171713417706E-16
v 3126.203125 12212.08203125 6151.14013671875
vn -4.35778080219956E-15 1 1.1171713417706E-16
v 3126.203125 12212.08203125 6038.80908203125
vn -4.35778080219956E-15 1 1.1171713417706E-16
v 3589.26953125 12212.08203125 6151.14013671875
vn 0.999671578407288 0 -0.0256278235465288
v 3586.3896484375 12212.08203125 6038.80908203125
vn 0.999671578407288 0 -0.0256278235465288
v 3586.3896484375 12015.421875 6038.80908203125
vn 0.999671578407288 0 -0.0256278235465288
v 3590.7255859375 12018.734375 6207.93994140625
vn 0.999671578407288 0 -0.0256278235465288
v 3590.7255859375 12210.09765625 6207.93994140625
vn 0.999671578407288 0 -0.0256278235465288
v 3586.3896484375 12015.421875 6038.80908203125
vn 0 0 -1
v 3586.3896484375 12212.08203125 6038.80908203125
vn 0 0 -1
v 3126.203125 12212.08203125 6038.80908203125
vn 0 0 -1
v 3126.203125 12015.421875 6038.80908203125
vn 0 0 -1
v 3129.4287109375 12025.734375 6435.14990234375
vn 0 0 1
v 3129.4287109375 12202.1640625 6435.14990234375
vn 0 0 1
v 3590.7255859375 12202.1640625 6435.14990234375
vn 0 0 1
v 3590.7255859375 12025.734375 6435.14990234375
vn 0 0 1
v 3129.4287109375 12202.1640625 6435.14990234375
vn -0.999710023403168 -3.23463010662352E-14 0.0240816064178944
v 3129.4287109375 12025.734375 6435.14990234375
vn -0.999710023403168 -3.23463010662352E-14 0.0240816064178944
v 3126.203125 12020.6328125 6301.26513671875
vn -0.999710023403168 -3.23463010662352E-14 0.0240816064178944
v 3126.203125 12206.83984375 6301.26513671875
vn -0.999710023403168 -3.23463010662352E-14 0.0240816064178944
v 3562.7392578125 11998.470703125 5116.23583984375
vn 0 -1 0
v 3555.205078125 11998.470703125 4822.37255859375
vn 0 -1 0
v 3146.724609375 11998.470703125 4822.37255859375
vn 0 -1 0
v 3139.1904296875 11998.470703125 5116.23583984375
vn 0 -1 0
v 3555.205078125 12198.470703125 4822.37255859375
vn -7.04518637439228E-15 0.9998978972435 -0.0142892841249704
v 3562.7392578125 12202.669921875 5116.23583984375
vn -7.04518637439228E-15 0.9998978972435 -0.0142892841249704
v 3139.1904296875 12202.669921875 5116.23583984375
vn -7.04518637439228E-15 0.9998978972435 -0.0142892841249704
v 3146.724609375 12198.470703125 4822.37255859375
vn -7.04518637439228E-15 0.9998978972435 -0.0142892841249704
v 3146.724609375 12198.470703125 4822.37255859375
vn -0.999671578407288 0 -0.0256278235465288
v 3139.1904296875 12202.669921875 5116.23583984375
vn -0.999671578407288 0 -0.0256278235465288
v 3139.1904296875 11998.470703125 5116.23583984375
vn -0.999671578407288 0 -0.0256278235465288
v 3146.724609375 11998.470703125 4822.37255859375
vn -0.999671578407288 0 -0.0256278235465288
v 3562.7392578125 12202.669921875 5116.23583984375
vn 4.69727076042614E-15 0 1
v 3562.7392578125 11998.470703125 5116.23583984375
vn 4.69727076042614E-15 0 1
v 3139.1904296875 11998.470703125 5116.23583984375
vn 4.69727076042614E-15 0 1
v 3139.1904296875 12202.669921875 5116.23583984375
vn 4.69727076042614E-15 0 1
v 3555.205078125 11998.470703125 4822.37255859375
vn 0 0 -1
v 3555.205078125 12198.470703125 4822.37255859375
vn 0 0 -1
v 3146.724609375 12198.470703125 4822.37255859375
vn 0 0 -1
v 3146.724609375 11998.470703125 4822.37255859375
vn 0 0 -1
v 3562.7392578125 12202.669921875 5116.23583984375
vn 0.999671578407288 9.94433112515725E-15 -0.0256278235465288
v 3555.205078125 12198.470703125 4822.37255859375
vn 0.999671578407288 9.94433112515725E-15 -0.0256278235465288
v 3555.205078125 11998.470703125 4822.37255859375
vn 0.999671578407288 9.94433112515725E-15 -0.0256278235465288
v 3562.7392578125 11998.470703125 5116.23583984375
vn 0.999671578407288 9.94433112515725E-15 -0.0256278235465288
v 3142.31640625 12183.48046875 6970.14990234375
vn -0.999710023403168 0 0.0240816064178944
v 3142.31640625 12046.119140625 6970.14990234375
vn -0.999710023403168 0 0.0240816064178944
v 3135.08984375 12034.689453125 6670.14990234375
vn -0.999710023403168 0 0.0240816064178944
v 3135.08984375 12193.95703125 6670.14990234375
vn -0.999710023403168 0 0.0240816064178944
v 3135.08984375 12193.95703125 6670.14990234375
vn 0 0 -1
v 3135.08984375 12034.689453125 6670.14990234375
vn 0 0 -1
v 3590.7255859375 12034.689453125 6670.14990234375
vn 0 0 -1
v 3590.7255859375 12193.95703125 6670.14990234375
vn 0 0 -1
v 3135.08984375 12034.689453125 6670.14990234375
vn 4.67113047664092E-15 -0.999274909496307 0.0380749590694904
v 3142.31640625 12046.119140625 6970.14990234375
vn 4.67113047664092E-15 -0.999274909496307 0.0380749590694904
v 3590.7255859375 12046.119140625 6970.14990234375
vn 4.67113047664092E-15 -0.999274909496307 0.0380749590694904
v 3590.7255859375 12034.689453125 6670.14990234375
vn 4.67113047664092E-15 -0.999274909496307 0.0380749590694904
v 3142.31640625 12046.119140625 6970.14990234375
vn 0 0 1
v 3142.31640625 12183.48046875 6970.14990234375
vn 0 0 1
v 3590.7255859375 12183.48046875 6970.14990234375
vn 0 0 1
v 3590.7255859375 12046.119140625 6970.14990234375
vn 0 0 1
v 3142.31640625 12183.48046875 6970.14990234375
vn -4.42614271379009E-15 0.999390840530396 0.0348994955420494
v 3135.08984375 12193.95703125 6670.14990234375
vn -4.42614271379009E-15 0.999390840530396 0.0348994955420494
v 3590.7255859375 12193.95703125 6670.14990234375
vn -4.42614271379009E-15 0.999390840530396 0.0348994955420494
v 3590.7255859375 12183.48046875 6970.14990234375
vn -4.42614271379009E-15 0.999390840530396 0.0348994955420494
v 3590.7255859375 12034.689453125 6670.14990234375
vn 1 0 0
v 3590.7255859375 12046.119140625 6970.14990234375
vn 1 0 0
v 3590.7255859375 12183.48046875 6970.14990234375
vn 1 0 0
v 3590.7255859375 12193.95703125 6670.14990234375
vn 1 0 0
v 3161.14453125 12156.185546875 7751.79541015625
vn -4.60762164032169E-15 0.999390840530396 0.0348994955420494
v 3153.03515625 12167.94140625 7415.14990234375
vn -4.60762164032169E-15 0.999390840530396 0.0348994955420494
v 3590.7255859375 12167.94140625 7415.14990234375
vn -4.60762164032169E-15 0.999390840530396 0.0348994955420494
v 3590.7255859375 12156.185546875 7751.79541015625
vn -4.60762164032169E-15 0.999390840530396 0.0348994955420494
v 3153.03515625 12167.94140625 7415.14990234375
vn 0 0 -1
v 3153.03515625 12063.076171875 7415.14990234375
vn 0 0 -1
v 3590.7255859375 12063.076171875 7415.14990234375
vn 0 0 -1
v 3590.7255859375 12167.94140625 7415.14990234375
vn 0 0 -1
v 3153.03515625 12063.076171875 7415.14990234375
vn 5.12379335398309E-15 -0.999274909496307 0.0380749590694904
v 3161.14453125 12075.90234375 7751.79541015625
vn 5.12379335398309E-15 -0.999274909496307 0.0380749590694904
v 3590.7255859375 12075.90234375 7751.79541015625
vn 5.12379335398309E-15 -0.999274909496307 0.0380749590694904
v 3590.7255859375 12063.076171875 7415.14990234375
vn 5.12379335398309E-15 -0.999274909496307 0.0380749590694904
v 3161.14453125 12075.90234375 7751.79541015625
vn 0 0 1
v 3161.14453125 12156.185546875 7751.79541015625
vn 0 0 1
v 3590.7255859375 12156.185546875 7751.79541015625
vn 0 0 1
v 3590.7255859375 12075.90234375 7751.79541015625
vn 0 0 1
v 3161.14453125 12075.90234375 7751.79541015625
vn -0.999710023403168 0 0.0240816064178944
v 3153.03515625 12063.076171875 7415.14990234375
vn -0.999710023403168 0 0.0240816064178944
v 3153.03515625 12167.94140625 7415.14990234375
vn -0.999710023403168 0 0.0240816064178944
v 3161.14453125 12156.185546875 7751.79541015625
vn -0.999710023403168 0 0.0240816064178944
v 3590.7255859375 12167.94140625 7415.14990234375
vn 1 0 0
v 3590.7255859375 12063.076171875 7415.14990234375
vn 1 0 0
v 3590.7255859375 12075.90234375 7751.79541015625
vn 1 0 0
v 3590.7255859375 12156.185546875 7751.79541015625
vn 1 0 0
f 119//119 117//117 120//120
f 119//119 118//118 117//117
f 115//115 113//113 116//116
f 115//115 114//114 113//113
f 111//111 109//109 112//112
f 111//111 110//110 109//109
f 107//107 105//105 108//108
f 107//107 106//106 105//105
f 103//103 101//101 104//104
f 103//103 102//102 101//101
f 99//99 97//97 100//100
f 99//99 98//98 97//97
f 95//95 93//93 96//96
f 95//95 94//94 93//93
f 91//91 89//89 92//92
f 91//91 90//90 89//89
f 87//87 85//85 88//88
f 87//87 86//86 85//85
f 83//83 81//81 84//84
f 83//83 82//82 81//81
f 79//79 77//77 80//80
f 79//79 78//78 77//77
f 75//75 73//73 76//76
f 75//75 74//74 73//73
f 71//71 69//69 72//72
f 71//71 70//70 69//69
f 67//67 65//65 68//68
f 67//67 66//66 65//65
f 63//63 61//61 64//64
f 63//63 62//62 61//61
f 59//59 57//57 60//60
f 59//59 58//58 57//57
f 55//55 53//53 56//56
f 55//55 54//54 53//53
f 51//51 49//49 52//52
f 51//51 50//50 49//49
f 47//47 45//45 48//48
f 47//47 46//46 45//45
f 43//43 41//41 44//44
f 43//43 42//42 41//41
f 39//39 37//37 40//40
f 39//39 38//38 37//37
f 32//32 36//36 33//33
f 36//36 35//35 33//33
f 35//35 34//34 33//33
f 30//30 28//28 31//31
f 30//30 29//29 28//28
f 23//23 25//25 24//24
f 23//23 27//27 25//25
f 27//27 26//26 25//25
f 21//21 20//20 22//22
f 20//20 19//19 22//22
f 19//19 18//18 22//22
f 13//13 12//12 14//14
f 12//12 15//15 14//14
f 12//12 17//17 15//15
f 17//17 16//16 15//15
f 6//6 8//8 7//7
f 6//6 11//11 8//8
f 11//11 10//10 8//8
f 10//10 9//9 8//8
f 4//4 3//3 5//5
f 3//3 2//2 5//5
f 2//2 1//1 5//5
