v 5414.94921875 36110.2890625 194.09130859375
vn 1 0 0
v 5414.94921875 36110.2890625 494.09130859375
vn 1 0 0
v 5414.94921875 36260.2890625 494.09130859375
vn 1 0 0
v 5414.94921875 36260.2890625 194.09130859375
vn 1 0 0
v 5414.94921875 36260.2890625 194.09130859375
vn -7.42811472325289E-16 1 0
v 5414.94921875 36260.2890625 494.09130859375
vn -7.42811472325289E-16 1 0
v -4227.162109375 36260.2890625 494.09130859375
vn -7.42811472325289E-16 1 0
v -4227.162109375 36260.2890625 194.09130859375
vn -7.42811472325289E-16 1 0
v -4227.162109375 36260.2890625 194.09130859375
vn -0.194632023572922 0.980876326560974 0
v -4227.162109375 36260.2890625 494.09130859375
vn -0.194632023572922 0.980876326560974 0
v -4244.07568359375 36256.93359375 494.09130859375
vn -0.194632023572922 0.980876326560974 0
v -4244.07568359375 36256.93359375 194.09130859375
vn -0.194632023572922 0.980876326560974 0
v -4244.07568359375 36256.93359375 194.09130859375
vn -0.231317922472954 0.972878217697144 0
v -4244.07568359375 36256.93359375 494.09130859375
vn -0.231317922472954 0.972878217697144 0
v -4260.85107421875 36252.9453125 494.09130859375
vn -0.231317922472954 0.972878217697144 0
v -4260.85107421875 36252.9453125 194.09130859375
vn -0.231317922472954 0.972878217697144 0
v -4260.85107421875 36252.9453125 194.09130859375
vn -0.267677694559097 0.963508486747742 0
v -4260.85107421875 36252.9453125 494.09130859375
vn -0.267677694559097 0.963508486747742 0
v -4277.46484375 36248.328125 494.09130859375
vn -0.267677694559097 0.963508486747742 0
v -4277.46484375 36248.328125 194.09130859375
vn -0.267677694559097 0.963508486747742 0
v -4277.46484375 36248.328125 194.09130859375
vn -0.303660094738007 0.952780425548553 0
v -4277.46484375 36248.328125 494.09130859375
vn -0.303660094738007 0.952780425548553 0
v -4293.8935546875 36243.09375 494.09130859375
vn -0.303660094738007 0.952780425548553 0
v -4293.8935546875 36243.09375 194.09130859375
vn -0.303660094738007 0.952780425548553 0
v -4293.8935546875 36243.09375 194.09130859375
vn -0.339214384555817 0.940709114074707 0
v -4293.8935546875 36243.09375 494.09130859375
vn -0.339214384555817 0.940709114074707 0
v -4310.11376953125 36237.24609375 494.09130859375
vn -0.339214384555817 0.940709114074707 0
v -4310.11376953125 36237.24609375 194.09130859375
vn -0.339214384555817 0.940709114074707 0
v -4310.11376953125 36237.24609375 194.09130859375
vn -0.374290436506271 0.927311539649963 0
v -4310.11376953125 36237.24609375 494.09130859375
vn -0.374290436506271 0.927311539649963 0
v -4326.103515625 36230.7890625 494.09130859375
vn -0.374290436506271 0.927311539649963 0
v -4326.103515625 36230.7890625 194.09130859375
vn -0.374290436506271 0.927311539649963 0
v -4326.103515625 36230.7890625 194.09130859375
vn -0.40883880853653 0.912606596946716 0
v -4326.103515625 36230.7890625 494.09130859375
vn -0.40883880853653 0.912606596946716 0
v -4341.83959960938 36223.7421875 494.09130859375
vn -0.40883880853653 0.912606596946716 0
v -4341.83959960938 36223.7421875 194.09130859375
vn -0.40883880853653 0.912606596946716 0
v -4341.83959960938 36223.7421875 194.09130859375
vn -0.442810773849487 0.896615087985992 0
v -4341.83959960938 36223.7421875 494.09130859375
vn -0.442810773849487 0.896615087985992 0
v -4357.2998046875 36216.10546875 494.09130859375
vn -0.442810773849487 0.896615087985992 0
v -4357.2998046875 36216.10546875 194.09130859375
vn -0.442810773849487 0.896615087985992 0
v -4357.2998046875 36216.10546875 194.09130859375
vn -0.47615846991539 0.879359483718872 0
v -4357.2998046875 36216.10546875 494.09130859375
vn -0.47615846991539 0.879359483718872 0
v -4372.46264648438 36207.89453125 494.09130859375
vn -0.47615846991539 0.879359483718872 0
v -4372.46264648438 36207.89453125 194.09130859375
vn -0.47615846991539 0.879359483718872 0
v -4372.46264648438 36207.89453125 194.09130859375
vn -0.508834898471832 0.860864162445068 0
v -4372.46264648438 36207.89453125 494.09130859375
vn -0.508834898471832 0.860864162445068 0
v -4387.30639648438 36199.12109375 494.09130859375
vn -0.508834898471832 0.860864162445068 0
v -4387.30639648438 36199.12109375 194.09130859375
vn -0.508834898471832 0.860864162445068 0
v -4387.30639648438 36199.12109375 194.09130859375
vn -0.540793895721436 0.841155111789703 0
v -4387.30639648438 36199.12109375 494.09130859375
vn -0.540793895721436 0.841155111789703 0
v -4401.810546875 36189.796875 494.09130859375
vn -0.540793895721436 0.841155111789703 0
v -4401.810546875 36189.796875 194.09130859375
vn -0.540793895721436 0.841155111789703 0
v -4401.810546875 36189.796875 194.09130859375
vn -0.571990489959717 0.820260226726532 0
v -4401.810546875 36189.796875 494.09130859375
vn -0.571990489959717 0.820260226726532 0
v -4415.95434570313 36179.93359375 494.09130859375
vn -0.571990489959717 0.820260226726532 0
v -4415.95434570313 36179.93359375 194.09130859375
vn -0.571990489959717 0.820260226726532 0
v -4415.95434570313 36179.93359375 194.09130859375
vn -0.602380692958832 0.798208951950073 0
v -4415.95434570313 36179.93359375 494.09130859375
vn -0.602380692958832 0.798208951950073 0
v -4429.7177734375 36169.546875 494.09130859375
vn -0.602380692958832 0.798208951950073 0
v -4429.7177734375 36169.546875 194.09130859375
vn -0.602380692958832 0.798208951950073 0
v -4429.7177734375 36169.546875 194.09130859375
vn -0.631921648979187 0.77503228187561 0
v -4429.7177734375 36169.546875 494.09130859375
vn -0.631921648979187 0.77503228187561 0
v -4443.08154296875 36158.65234375 494.09130859375
vn -0.631921648979187 0.77503228187561 0
v -4443.08154296875 36158.65234375 194.09130859375
vn -0.631921648979187 0.77503228187561 0
v -4443.08154296875 36158.65234375 194.09130859375
vn -0.660571694374084 0.750762939453125 0
v -4443.08154296875 36158.65234375 494.09130859375
vn -0.660571694374084 0.750762939453125 0
v -4456.02685546875 36147.26171875 494.09130859375
vn -0.660571694374084 0.750762939453125 0
v -4456.02685546875 36147.26171875 194.09130859375
vn -0.660571694374084 0.750762939453125 0
v -4456.02685546875 36147.26171875 194.09130859375
vn -0.688290476799011 0.725435197353363 0
v -4456.02685546875 36147.26171875 494.09130859375
vn -0.688290476799011 0.725435197353363 0
v -4468.53564453125 36135.390625 494.09130859375
vn -0.688290476799011 0.725435197353363 0
v -4468.53564453125 36135.390625 194.09130859375
vn -0.688290476799011 0.725435197353363 0
v -4468.53564453125 36135.390625 194.09130859375
vn -0.71503883600235 0.6990846991539 0
v -4468.53564453125 36135.390625 494.09130859375
vn -0.71503883600235 0.6990846991539 0
v -4480.58984375 36123.0625 494.09130859375
vn -0.71503883600235 0.6990846991539 0
v -4480.58984375 36123.0625 194.09130859375
vn -0.71503883600235 0.6990846991539 0
v -4480.58984375 36123.0625 194.09130859375
vn -0.740779161453247 0.671748638153076 0
v -4480.58984375 36123.0625 494.09130859375
vn -0.740779161453247 0.671748638153076 0
v -4492.1728515625 36110.2890625 494.09130859375
vn -0.740779161453247 0.671748638153076 0
v -4492.1728515625 36110.2890625 194.09130859375
vn -0.740779161453247 0.671748638153076 0
v -4492.1728515625 36110.2890625 194.09130859375
vn 0 -1 0
v -4492.1728515625 36110.2890625 494.09130859375
vn 0 -1 0
v 5414.94921875 36110.2890625 494.09130859375
vn 0 -1 0
v 5414.94921875 36110.2890625 194.09130859375
vn 0 -1 0
v 5414.94921875 36110.2890625 194.09130859375
vn 0 0 -1
v 5414.94921875 36260.2890625 194.09130859375
vn 0 0 -1
v -4227.162109375 36260.2890625 194.09130859375
vn 0 0 -1
v -4244.07568359375 36256.93359375 194.09130859375
vn 0 0 -1
v -4260.85107421875 36252.9453125 194.09130859375
vn 0 0 -1
v -4277.46484375 36248.328125 194.09130859375
vn 0 0 -1
v -4293.8935546875 36243.09375 194.09130859375
vn 0 0 -1
v -4310.11376953125 36237.24609375 194.09130859375
vn 0 0 -1
v -4326.103515625 36230.7890625 194.09130859375
vn 0 0 -1
v -4341.83959960938 36223.7421875 194.09130859375
vn 0 0 -1
v -4357.2998046875 36216.10546875 194.09130859375
vn 0 0 -1
v -4372.46264648438 36207.89453125 194.09130859375
vn 0 0 -1
v -4387.30639648438 36199.12109375 194.09130859375
vn 0 0 -1
v -4401.810546875 36189.796875 194.09130859375
vn 0 0 -1
v -4415.95434570313 36179.93359375 194.09130859375
vn 0 0 -1
v -4429.7177734375 36169.546875 194.09130859375
vn 0 0 -1
v -4443.08154296875 36158.65234375 194.09130859375
vn 0 0 -1
v -4456.02685546875 36147.26171875 194.09130859375
vn 0 0 -1
v -4468.53564453125 36135.390625 194.09130859375
vn 0 0 -1
v -4480.58984375 36123.0625 194.09130859375
vn 0 0 -1
v -4492.1728515625 36110.2890625 194.09130859375
vn 0 0 -1
v 5414.94921875 36260.2890625 494.09130859375
vn 0 0 1
v 5414.94921875 36110.2890625 494.09130859375
vn 0 0 1
v -4492.1728515625 36110.2890625 494.09130859375
vn 0 0 1
v -4480.58984375 36123.0625 494.09130859375
vn 0 0 1
v -4468.53564453125 36135.390625 494.09130859375
vn 0 0 1
v -4456.02685546875 36147.26171875 494.09130859375
vn 0 0 1
v -4443.08154296875 36158.65234375 494.09130859375
vn 0 0 1
v -4429.7177734375 36169.546875 494.09130859375
vn 0 0 1
v -4415.95434570313 36179.93359375 494.09130859375
vn 0 0 1
v -4401.810546875 36189.796875 494.09130859375
vn 0 0 1
v -4387.30639648438 36199.12109375 494.09130859375
vn 0 0 1
v -4372.46264648438 36207.89453125 494.09130859375
vn 0 0 1
v -4357.2998046875 36216.10546875 494.09130859375
vn 0 0 1
v -4341.83959960938 36223.7421875 494.09130859375
vn 0 0 1
v -4326.103515625 36230.7890625 494.09130859375
vn 0 0 1
v -4310.11376953125 36237.24609375 494.09130859375
vn 0 0 1
v -4293.8935546875 36243.09375 494.09130859375
vn 0 0 1
v -4277.46484375 36248.328125 494.09130859375
vn 0 0 1
v -4260.85107421875 36252.9453125 494.09130859375
vn 0 0 1
v -4244.07568359375 36256.93359375 494.09130859375
vn 0 0 1
v -4227.162109375 36260.2890625 494.09130859375
vn 0 0 1
f 108//108 110//110 109//109
f 108//108 111//111 110//110
f 108//108 112//112 111//111
f 108//108 113//113 112//112
f 108//108 114//114 113//113
f 108//108 115//115 114//114
f 108//108 116//116 115//115
f 108//108 117//117 116//116
f 108//108 118//118 117//117
f 108//108 119//119 118//118
f 108//108 120//120 119//119
f 108//108 121//121 120//120
f 108//108 122//122 121//121
f 108//108 123//123 122//122
f 108//108 124//124 123//123
f 108//108 125//125 124//124
f 108//108 126//126 125//125
f 108//108 107//107 126//126
f 107//107 106//106 126//126
f 104//104 103//103 105//105
f 103//103 102//102 105//105
f 102//102 101//101 105//105
f 101//101 100//100 105//105
f 100//100 99//99 105//105
f 99//99 98//98 105//105
f 98//98 97//97 105//105
f 97//97 96//96 105//105
f 96//96 95//95 105//105
f 95//95 94//94 105//105
f 94//94 93//93 105//105
f 93//93 92//92 105//105
f 92//92 91//91 105//105
f 91//91 90//90 105//105
f 90//90 89//89 105//105
f 89//89 88//88 105//105
f 88//88 87//87 105//105
f 87//87 86//86 105//105
f 86//86 85//85 105//105
f 83//83 81//81 84//84
f 83//83 82//82 81//81
f 79//79 77//77 80//80
f 79//79 78//78 77//77
f 75//75 73//73 76//76
f 75//75 74//74 73//73
f 71//71 69//69 72//72
f 71//71 70//70 69//69
f 67//67 65//65 68//68
f 67//67 66//66 65//65
f 63//63 61//61 64//64
f 63//63 62//62 61//61
f 59//59 57//57 60//60
f 59//59 58//58 57//57
f 55//55 53//53 56//56
f 55//55 54//54 53//53
f 51//51 49//49 52//52
f 51//51 50//50 49//49
f 47//47 45//45 48//48
f 47//47 46//46 45//45
f 43//43 41//41 44//44
f 43//43 42//42 41//41
f 39//39 37//37 40//40
f 39//39 38//38 37//37
f 35//35 33//33 36//36
f 35//35 34//34 33//33
f 31//31 29//29 32//32
f 31//31 30//30 29//29
f 27//27 25//25 28//28
f 27//27 26//26 25//25
f 23//23 21//21 24//24
f 23//23 22//22 21//21
f 19//19 17//17 20//20
f 19//19 18//18 17//17
f 15//15 13//13 16//16
f 15//15 14//14 13//13
f 11//11 9//9 12//12
f 11//11 10//10 9//9
f 7//7 5//5 8//8
f 7//7 6//6 5//5
f 3//3 1//1 4//4
f 3//3 2//2 1//1
