v -1856.791015625 46063.40625 3371.27294921875
vn -0.48480960726738 0 -0.874619722366333
v 3338.0546875 46063.40625 491.72216796875
vn -0.48480960726738 0 -0.874619722366333
v 3338.0546875 46413.40625 491.72216796875
vn -0.48480960726738 0 -0.874619722366333
v -1856.791015625 46413.40625 3371.27294921875
vn -0.48480960726738 0 -0.874619722366333
v -1856.791015625 46063.40625 3771.44677734375
vn 0 -1 0
v 3791.5625 46063.40625 640.51318359375
vn 0 -1 0
v 3791.5625 46063.40625 491.72216796875
vn 0 -1 0
v 3338.0546875 46063.40625 491.72216796875
vn 0 -1 0
v -1856.791015625 46063.40625 3371.27294921875
vn 0 -1 0
v 3791.5625 46063.40625 640.51318359375
vn 0.48480960726738 0 0.874619722366333
v -1856.791015625 46063.40625 3771.44677734375
vn 0.48480960726738 0 0.874619722366333
v -1856.791015625 46413.40625 3771.44677734375
vn 0.48480960726738 0 0.874619722366333
v 3791.5625 46413.40625 640.51318359375
vn 0.48480960726738 0 0.874619722366333
v -1856.791015625 46413.40625 3371.27294921875
vn 0 1 0
v 3338.0546875 46413.40625 491.72216796875
vn 0 1 0
v 3791.5625 46413.40625 491.72216796875
vn 0 1 0
v 3791.5625 46413.40625 640.51318359375
vn 0 1 0
v -1856.791015625 46413.40625 3771.44677734375
vn 0 1 0
v 3791.5625 46413.40625 640.51318359375
vn 1 0 0
v 3791.5625 46413.40625 491.72216796875
vn 1 0 0
v 3791.5625 46063.40625 491.72216796875
vn 1 0 0
v 3791.5625 46063.40625 640.51318359375
vn 1 0 0
v 3791.5625 46063.40625 491.72216796875
vn 0 0 -1
v 3791.5625 46413.40625 491.72216796875
vn 0 0 -1
v 3338.0546875 46413.40625 491.72216796875
vn 0 0 -1
v 3338.0546875 46063.40625 491.72216796875
vn 0 0 -1
v -1856.791015625 46413.40625 3771.44677734375
vn -1 0 0
v -1856.791015625 46063.40625 3771.44677734375
vn -1 0 0
v -1856.791015625 46063.40625 3371.27294921875
vn -1 0 0
v -1856.791015625 46413.40625 3371.27294921875
vn -1 0 0
f 29//29 27//27 30//30
f 29//29 28//28 27//27
f 25//25 23//23 26//26
f 25//25 24//24 23//23
f 21//21 19//19 22//22
f 21//21 20//20 19//19
f 17//17 16//16 18//18
f 16//16 15//15 18//18
f 15//15 14//14 18//18
f 12//12 10//10 13//13
f 12//12 11//11 10//10
f 5//5 7//7 6//6
f 5//5 9//9 7//7
f 9//9 8//8 7//7
f 3//3 1//1 4//4
f 3//3 2//2 1//1
